<?xml version="1.0" encoding="UTF-8" standalone="no"?>
<svg
   version="1.1"
   width="1618px"
   height="1000px"
   viewBox="-449 214 1618 1000"
   id="svg203"
   sodipodi:docname="online-5784756.svg"
   inkscape:version="1.1 (c68e22c387, 2021-05-23)"
   xmlns:inkscape="http://www.inkscape.org/namespaces/inkscape"
   xmlns:sodipodi="http://sodipodi.sourceforge.net/DTD/sodipodi-0.dtd"
   xmlns="http://www.w3.org/2000/svg"
   xmlns:svg="http://www.w3.org/2000/svg">
  <defs
     id="defs207" />
  <sodipodi:namedview
     id="namedview205"
     pagecolor="#ffffff"
     bordercolor="#666666"
     borderopacity="1.0"
     inkscape:pageshadow="2"
     inkscape:pageopacity="0.0"
     inkscape:pagecheckerboard="0"
     showgrid="false"
     inkscape:zoom="0.779"
     inkscape:cx="809.37099"
     inkscape:cy="500"
     inkscape:window-width="1920"
     inkscape:window-height="991"
     inkscape:window-x="1699"
     inkscape:window-y="-9"
     inkscape:window-maximized="1"
     inkscape:current-layer="svg203" />
  <g
     style="fill:#000000;fill-opacity:0.333333;stroke-linejoin:miter"
     id="g8">
    <path
       d="m 1034.0175,1078.6613 -5.7247,2.9027 q -40.6992,8.772 -238.17165,14.0315 -198.8388,5.2551 -468.29272,4.2618 -257.158676,-1.3883 -411.33942,-8.1245 -49.40121,-2.1774 -81.38301,-4.7451 l -26.87982,-2.6398 q -22.15143,-2.7246 -22.40048,-5.6866 6.72453,-9.09 183.672133,-15.126 176.947587,-6.036 443.423737,-6.2654 266.4762,0.2294 443.42377,6.2654 176.94766,6.036 183.67216,15.126"
       id="path6" />
  </g>
  <g
     style="fill:#000000;fill-opacity:1;stroke-linejoin:miter"
     id="g12">
    <path
       d="m -56.7943,1029.6694 -42.34135,13.9451 q -3.53043,5.3694 -8.19939,29.28 9.955775,6.8372 14.80429,7.8882 4.3759,1.2783 12.47811,-0.2125 29.86341,9.7345 41.853417,9.5394 10.16189,0.2051 16.275793,-2.4429 5.635914,-2.3577 4.342373,-8.9743 7.676403,0.4746 11.7438583,-3.2052 6.27906817,-5.8435 -0.7789263,-12.2644 -2.680977,-2.4068 -8.296228,-5.5486 l -22.246571,-11.4131 q -4.582459,-2.4242 -7.753836,-4.5519 -8.60089,-5.7831 -11.869272,-12.0179"
       id="path10" />
  </g>
  <g
     style="fill:#ffc8b1;fill-opacity:1;stroke-linejoin:miter"
     id="g16">
    <path
       d="m -110.97581,898.4698 q -3.66997,9.24913 -4.61827,16.21184 -1.12181,7.67151 -0.28691,17.05906 1.11807,16.3256 13.41425,65.0247 l 23.582455,-6.19326 q -4.357995,-48.25054 -3.594965,-57.68174 0.182245,-5.61495 1.117,-9.1508 0.56355,-2.1714 1.3721,-3.82114 0.46301,-1.08789 2.69062,-4.4104 0.39908,-0.67981 0.703606,-1.57266 0.877394,-2.7106 0.545349,-6.3967 l -34.892515,-9.0606"
       id="path14" />
  </g>
  <g
     style="fill:#ffc8b1;fill-opacity:1;stroke-linejoin:miter"
     id="g20">
    <path
       d="m -63.05954,906.6934 q -0.344482,3.973 -0.489967,6.95614 l -0.163063,8.83831 q -0.08485,2.08135 -0.3074,3.72555 -0.23503,1.8241 -0.683765,3.86375 -2.825905,11.12635 -3.389145,14.63415 -1.039734,5.69367 -1.3805,11.3192 -0.82596,11.253 0.97971,38.81606 l 19.208743,4.35634 q 9.683891,-23.865 13.340595,-40.178 3.692112,-15.30145 7.282381,-49.0412 l -34.394102,-3.29"
       id="path18" />
  </g>
  <g
     style="fill:#3c464f;fill-opacity:1;stroke-linejoin:miter"
     id="g24">
    <path
       d="m -18.163435,670.1336 q -0.866894,21.42585 3.36509,40.8314 3.618884,18.2615 19.1505827,67.22934 L 15.814501,776.653 -3.8001842,709.7229 -3.008513,696.19293 -18.153399,670.15094"
       id="path22" />
  </g>
  <g
     style="fill:#3c464f;fill-opacity:1;stroke-linejoin:miter"
     id="g28">
    <path
       d="m -130.32314,614.1508 q -16.16236,1.6041 -26.40879,19.1895 -8.99933,15.7728 -8.5425,43.4824 0.85257,33.53027 11.90686,67.68273 9.80039,29.23541 25.68427,44.64367 l 61.85924,-67.06914 Q -84.94764,657.5315 -97.93175,636.9209 -111.61422,613.182 -130.15947,614.13965"
       id="path26" />
  </g>
  <g
     style="fill:#ffc8b1;fill-opacity:1;stroke-linejoin:miter"
     id="g32">
    <path
       d="m -182.23889,632.00073 q -12.79436,12.59877 -7.29418,22.49217 4.51362,8.6383 20.73114,19.28133 7.6298,4.99467 16.89382,9.78192 l 26.18034,12.98565 6.07914,1.6842 q -2.30588,-0.72435 -2.6608,-1.3532 l 8.41959,-10.075 q -0.0587,-6.89137 -0.3378,-8.6623 -0.51733,-0.4169 -2.71274,-1.5771 l 0.003,10e-4 -15.92668,-8.512 -49.37446,-36.04667 v 9.7e-4 z"
       id="path30" />
  </g>
  <g
     style="fill:#59310e;fill-opacity:1;stroke-linejoin:miter"
     id="g36">
    <path
       d="m -53.23644,451.3347 q -26.87828,1.5648 -31.33269,22.74428 -2.37355,9.51257 -0.67953,30.75696 0.243525,2.5744 0.55418,5.16356 l 7.71733,45.4867 58.38473,-52.91332 q 1.931539,-25.60675 -5.739556,-35.50938 -11.043341,-15.1371 -28.774144,-15.7277"
       id="path34" />
  </g>
  <g
     style="fill:#ffffff;fill-opacity:1;stroke-linejoin:miter"
     id="g40">
    <path
       d="m -70.18574,543.94037 -10.22095,11.40423 -23.4473,2.3274 -84.24491,74.4816 50.96682,33.0208 23.0982,-22.79287 q 0.87791,15.85114 3.11033,22.29132 0.98967,3.07861 2.68947,5.89165 l 6.72115,9.7183 q 0.69866,0.3456 -1.12033,6.131 -0.12751,1.489 0.0614,2.82265 0.36527,3.9165 4.08565,14.95995 l 39.81345,21.9879 46.603089,-13.743 4.1684297,-60.3316 24.4174393,-0.29384 0.04225,-0.27222 Q 1.7933344,569.55225 -5.7120533,566.2386 -8.029387,563.3945 -10.344955,561.912 l -13.188656,-0.2953 -6.152752,-11.8943 -40.326477,-5.7575"
       id="path38" />
  </g>
  <g
     style="fill:#232335;fill-opacity:1;stroke-linejoin:miter"
     id="g44">
    <path
       d="m -100.93668,695.9007 -9.05123,30.77166 q -25.75925,82.63064 -30.1677,98.23029 -8.80655,29.87725 -20.255,74.2074 50.15023,11.15149 61.75054,12.10905 6.90744,0.7834 12.624075,0.6688 23.27391,-1.88546 25.886859,-1.3657 l 30.559409,3.3773 q 4.36738,-0.1024 5.993129,-2.3086 0.647332,-0.8351 1.040318,-1.9906 1.595352,-7.78334 2.485212,-8.5345 1.968128,-3.56257 6.174092,-7.0678 l 2.320486,-185.56026 q -18.847308,11.76416 -34.11294,8.98121 -14.77645,-1.43615 -55.03496,-21.41575"
       id="path42" />
  </g>
  <g
     style="fill:#ffc8b1;fill-opacity:1;stroke-linejoin:miter"
     id="g48">
    <path
       d="m -32.31453,469.34326 q -1.813198,0.17324 -3.97535,0.75294 -10.494082,3.4604 -11.133044,3.22323 -0.233026,0.40472 -11.204533,-0.0822 -2.605346,0.0572 -4.884223,0.47596 -4.009675,0.74227 -6.626084,2.67926 -4.4076,3.16644 -5.433856,11.7528 -1.13851,8.56854 0.631816,25.94144 l -2.955926,-0.2354 q -0.988685,-6.85685 -4.804496,-7.44853 -6.392114,-0.61859 -6.535438,4.71021 0.231369,6.48842 4.642594,14.81128 3.23752,6.12377 7.74982,1.09314 1.35802,7.57855 4.02889,12.0799 1.184,2.1863 3.57617,5.7256 l 15.329853,28.3963 17.888153,27.49674 q 5.673378,-16.86889 6.149331,-23.56927 0.301373,-2.95937 -0.05953,-6.44641 -2.060398,-10.91156 -1.820499,-11.29606 -0.201721,-3.2458 0.291996,-7.91555 9.26049,-10.888 11.405037,-15.63129 2.421041,-4.68371 2.268743,-11.91913 3.713168,-1.06183 3.623599,-8.58777 0.177899,-1.71252 -0.422165,-17.24078 -0.746913,-1.62463 -4.065615,-1.47925 -1.128435,0.09 -0.581778,2.97034 l -1.264679,0.0962 q -0.01582,-16.85248 -2.846433,-24.33664 -2.500607,-6.88086 -8.891501,-6.02429"
       id="path46" />
  </g>
  <g
     style="fill:#ffc8b1;fill-opacity:1;stroke-linejoin:miter"
     id="g52">
    <path
       d="m -116.55474,676.7632 -9.07298,19.7874 v 10e-4 l 14.99569,7.41355 q 2.2621,5.82815 7.76336,7.37469 4.57222,1.09571 8.65466,1.12152 7.89706,0.0498 13.96111,-3.90406 9.88183,-7.95616 6.13501,-17.34355 l -0.0459,-0.0889 q -3.182185,-5.72764 -12.666355,-9.5788 -4.62059,-1.902 -7.966115,-1.9231 -5.37249,-0.0339 -7.45701,4.7827 z"
       id="path50" />
  </g>
  <g
     style="fill:#ffc8b1;fill-opacity:1;stroke-linejoin:miter"
     id="g56">
    <path
       d="m 5.7480145,651.115 -9.467589,1.00457 q 2.6099252,9.34003 3.20822595,13.37253 0.7574403,4.64773 0.075552,7.1865 -0.4972723,1.84777 -2.04963795,2.9768 -0.6830061,0.50427 -1.6039671,0.9428 -4.5551554,1.8717 -5.0018469,2.25007 -1.5875995,0.93923 -2.4864835,2.17723 -2.647349,3.7281 -2.538488,9.7027 0.406674,10.1833 9.5507298,13.3653 10.7669587,2.93085 15.2174942,-5.4013 3.292311,-7.1742 2.533755,-17.29047 -0.403484,-4.06033 -1.944562,-6.42486 Q 9.964599,672.85876 6.5039706,671.078 6.3153415,668.5281 5.7497597,651.16614"
       id="path54" />
  </g>
  <g
     style="fill:#3c464f;fill-opacity:1;stroke-linejoin:miter"
     id="g60">
    <path
       d="m -92.71837,552.2496 q -10.92734,0.83225 -11.91576,6.92264 -0.0725,1.39111 0.78886,3.63116 l 4.803285,10.4579 q 1.405525,3.3345 2.41932,6.80114 1.946165,6.51172 2.476089,15.10449 0.640246,9.93067 -0.281144,24.48207 -0.71936,12.3696 -3.69641,39.1887 l 5.42851,20.6955 12.96003,5.8195 0.06434,-0.0154 6.55106,-25.90984 q 2.45476,-56.46314 0.44788,-77.62983 -1.51304,-15.81617 -6.179344,-22.61467 -4.726311,-6.85665 -13.82637,-6.9339"
       id="path58" />
  </g>
  <g
     style="fill:#3c464f;fill-opacity:1;stroke-linejoin:miter"
     id="g64">
    <path
       d="m -26.406004,556.9301 q 11.000259,30.5378 12.97634,49.5865 1.238854,10.38336 1.181851,24.17633 0.0017,11.80213 -1.42273,35.24657 l 2.118312,16.804 10.5543676,-6.7536 2.5399084,-13.3623 q -0.5194337,-45.382 -2.7812585,-63.3247 -1.4531779,-12.89335 -4.7898425,-22.7396 -2.790718,-8.631 -9.71728,-19.99103 l -10.626232,0.35669"
       id="path62" />
  </g>
  <g
     style="fill:#4b4743;fill-opacity:1;stroke-linejoin:miter"
     id="g68">
    <path
       d="m -78.56083,986.8001 -27.07271,6.05195 q 3.58752,11.48635 4.97334,21.04145 1.47898,9.2292 3.36549,33.4212 9.67723,0.9078 14.68075,-0.282 5.98451,-1.1434 15.32409,-8.1312 l -6.71213,-18.1952 -4.54547,-33.80756"
       id="path66" />
  </g>
  <g
     style="fill:#4b4743;fill-opacity:1;stroke-linejoin:miter"
     id="g72">
    <path
       d="m -71.06397,989.0471 -5.26311,26.3916 q 1.83688,12.7924 3.56087,17.1963 1.87516,5.1919 4.8856,5.724 3.2245,0.9656 11.183516,-3.5497 l 10.759232,-40.03806 -25.097874,-5.71764"
       id="path70" />
  </g>
  <g
     style="fill:#000000;fill-opacity:0.0745098;stroke-linejoin:miter"
     id="g76">
    <path
       d="m -63.646507,549.7573 14.880863,20.5632 16.591209,-19.23145 q -9.497845,4.81079 -15.079785,4.23885 -5.39094,-0.22286 -16.335914,-5.54415"
       id="path74" />
  </g>
  <g
     style="fill:#ffffff;fill-opacity:1;stroke-linejoin:miter"
     id="g80">
    <path
       d="m -26.339102,557.4902 5.533255,37.1967 17.8272846,3.0115 -23.3331916,-40.1612"
       id="path78" />
  </g>
  <g
     style="fill:#ffffff;fill-opacity:1;stroke-linejoin:miter"
     id="g84">
    <path
       d="m -79.30095,555.10925 6.22923,40.75185 7.05869,-4.1771 -13.2814,-36.5567"
       id="path82" />
  </g>
  <g
     style="fill:#ff0000;fill-opacity:1;stroke-linejoin:miter"
     id="g88">
    <path
       d="m -49.785603,587.713 -10.250782,2.16005 12.955742,25.80365 -7.950267,13.1829 -3.716744,69.60506 16.752234,14.54294 15.800006,-16.65445 -1.479377,-65.7735 -6.635401,-14.77235 12.118095,-20.2333 -9.81232,0.79593 -4.374661,6.91037 -13.403397,-15.56356"
       id="path86" />
  </g>
  <g
     style="fill:#ffffff;fill-opacity:1;stroke-linejoin:miter"
     id="g92">
    <path
       d="m 1.522735,645.5547 -0.1472663,6.3398 q 4.65131,0.17276 5.217228,-0.0202 L 1.522735,645.5547"
       id="path90" />
  </g>
  <g
     style="fill:#a29797;fill-opacity:1;stroke-linejoin:miter"
     id="g96">
    <path
       d="m 756.83484,1043.3593 48.70239,2e-4 48.70252,2e-4 q 0,14.363 -5e-5,28.726 -48.7025,10e-5 -97.4049,3e-4 4e-5,-14.3633 4e-5,-28.7267"
       id="path94" />
  </g>
  <g
     style="fill:#a29797;fill-opacity:1;stroke-linejoin:miter"
     id="g100">
    <path
       d="m 315.0705,1027.4054 141.8186,5e-4 141.81854,3e-4 q 0,18.7486 -4e-5,37.497 -141.8185,5e-4 -283.6371,8e-4 0,-18.7492 0,-37.4986"
       id="path98" />
  </g>
  <g
     style="fill:#a29797;fill-opacity:1;stroke-linejoin:miter"
     id="g104">
    <path
       d="m 23.308863,1038.912 57.878652,5e-4 57.878665,3e-4 q 0,13.809 0,27.6181 -57.878665,3e-4 -115.757325,8e-4 4e-6,-13.8099 8e-6,-27.6197"
       id="path102" />
  </g>
  <g
     style="fill:#8bc7f0;fill-opacity:0.996078;stroke-linejoin:miter"
     id="g108">
    <path
       d="m 95.716736,552.1586 351.168214,5e-4 351.16825,6e-4 q -10e-5,235.7097 -3e-4,471.4193 -351.16823,3e-4 -702.336324,8e-4 7.4e-5,-235.71054 1.6e-4,-471.4212"
       id="path106" />
  </g>
  <g
     style="fill:#ffffff;fill-opacity:0.996078;stroke-linejoin:miter"
     id="g112">
    <path
       d="m 182.8177,613.31506 197.96025,9.8e-4 197.96039,7.6e-4 q -1.4e-4,145.6918 -3e-4,291.3837 -197.96024,8e-4 -395.9205,10e-4 7e-5,-145.69343 1.6e-4,-291.38691"
       id="path110" />
  </g>
  <g
     id="g118">
    <g
       style="fill:#1a1a1a;fill-opacity:1;stroke-linejoin:miter"
       id="g116">
      <path
         d="m 112.02811,549.2173 c -13.518184,0 -24.401676,10.6485 -24.401676,23.87444 l -1.6e-4,436.73226 c 0,12.577 -1.773414,22.8222 9.6772,23.7971 l -80.194408,2e-4 c -9.490649,-2e-4 -4.636795,7.3949 -4.636798,16.5806 l -4e-6,11.0533 c -3e-6,9.1857 7.640165,16.5806 17.130815,16.5806 l 830.848151,7e-4 c 9.49057,-6e-4 17.13137,-7.3955 17.13141,-16.5811 v -11.0534 c 0,-9.1856 4.85326,-16.5808 -4.63714,-16.5808 l -80.19446,4e-4 c 11.45066,-0.9751 9.6773,-11.2204 9.6773,-23.7974 l 3.1e-4,-436.7324 c 0,-13.22596 -10.88345,-23.87445 -24.40165,-23.87445 l -666.00172,3.5e-4 z m 210.81912,5.79015 c 3.46907,0 6.2814,2.75175 6.2814,6.14585 0,3.3939 -2.81233,6.14516 -6.2814,6.14516 -3.469,0 -6.28125,-2.7511 -6.28125,-6.14516 0,-3.3941 2.81225,-6.14585 6.28125,-6.14585 z m -211.41325,18.12985 667.18998,3.3e-4 -3e-4,436.63567 -667.18991,3e-4 1.7e-4,-436.6363 z m 225.12934,460.5616 216.93064,3e-4 c -0.32379,4.6228 -3.53996,8.2318 -7.4892,8.2318 l -201.95218,4e-4 c -3.94948,-4e-4 -7.16543,-3.6094 -7.48918,-8.2325 z m 440.45774,13.0783 c 5.10888,0 9.25064,4.0087 9.25064,8.9535 0,4.9448 -4.1418,8.9533 -9.2507,8.9533 -5.10877,0 -9.2506,-4.0085 -9.2506,-8.9533 0,-4.9448 4.1419,-8.9535 9.25066,-8.9535 z m 29.1759,0 c 5.10874,0 9.25031,4.0087 9.25054,8.9535 0,4.9448 -4.1416,8.9533 -9.2506,8.9533 -5.1089,0 -9.2501,-4.0085 -9.2501,-8.9533 0,-4.9448 4.1413,-8.9535 9.25016,-8.9535 z m 29.17664,0 c 5.1086,0 9.25,4.0087 9.25,8.9535 0,4.9448 -4.1415,8.9533 -9.25006,8.9533 -5.10907,0 -9.2508,-4.0085 -9.2508,-8.9533 0,-4.9448 4.14176,-8.9535 9.25086,-8.9535 z m -785.983463,5.9298 48.538643,4e-4 c 2.37266,-4e-4 4.28287,1.3481 4.28287,3.0231 0,1.6748 -1.91021,3.0232 -4.28287,3.0232 l -48.538647,2e-4 c -2.372663,-2e-4 -4.282868,-1.3486 -4.282868,-3.0234 0,-1.675 1.91021,-3.0235 4.282872,-3.0235 z"
         id="path114" />
    </g>
  </g>
  <g
     style="fill:#ffc8b1;fill-opacity:1;stroke-linejoin:miter"
     id="g122">
    <path
       d="m 569.7637,785.92725 q -1.1373,0.3078 -1.1473,2.09741 -0.0145,0.98651 0.21746,2.46899 1.5564,7.83258 1.37884,7.9328 0.1559,2.21535 -0.70666,3.7168 -2.75464,1.23475 -5.13788,0.44995 -1.52046,-0.42377 -4.09716,-1.85187 l -7.7962,-4.76227 q -1.41584,-0.62536 -2.2085,0.69334 -0.4614,0.9961 0.6472,2.3298 0.5614,0.67987 1.4594,1.4653 5.4011,4.3669 5.46383,4.61667 1.25627,1.24878 1.75467,2.89197 -10.52444,-6.24924 -17.9138,-11.79874 -2.44347,-1.2609 -3.7242,0.42575 -0.84885,1.5899 1.63596,4.0788 0.9497,0.99945 2.79344,2.56359 l 10.087,8.34756 q 2.41204,2.11247 2.1394,2.329 -1.92866,-0.42283 -7.5641,-4.39 -2.3832,-1.59497 -6.16326,-5.70764 -0.6109,-0.53976 -1.19494,-0.82156 -1.6845,-0.74735 -3.301,-0.25015 -1.348,0.57385 -0.9751,1.81921 0.3868,2.43921 10.8358,9.77881 -4.1397,-2.55902 -4.7382,-2.10352 -0.5386,0.24745 0.19216,1.89465 -0.0311,0.5392 1.34084,1.7415 6.3506,5.7973 13.7271,9.72274 4.6882,2.44226 8.75353,2.8114 3.83863,0.47326 10.69501,-0.83014 l 5.17986,0.5194 1.55476,-14.60906 q -0.38281,-1.70794 -1.15186,-4.56614 -1.0048,-3.6984 -2.0493,-5.9808 -0.44734,-1.17126 -3.4793,-6.18096 -0.51394,-0.93567 -0.97567,-2.08944 -0.50673,-1.2845 -0.8656,-2.6149 -0.32523,-1.11335 -0.78283,-3.6747 -0.0866,-0.395 -0.2824,-0.78374 -1.30257,-1.79816 -3.55104,-1.69246"
       id="path120" />
  </g>
  <g
     style="fill:#ffffff;fill-opacity:1;stroke-linejoin:miter"
     id="g126">
    <path
       d="m 581.47485,810.7977 -5.41135,25.32876 5.7003,1.2193 0.0927,-0.0118 5.41021,-25.2974 -5.78136,-1.2366"
       id="path124" />
  </g>
  <g
     style="fill:#0e0400;fill-opacity:1;stroke-linejoin:miter"
     id="g130">
    <path
       d="m 659.504,612.6913 q -7.09165,0.38975 -11.35086,4.8954 -4.66474,4.6184 -8.9643,15.3928 -3.90924,9.44506 -3.75598,9.40203 -0.78756,2.37447 -0.81293,4.34644 -0.28153,4.12623 3.63782,17.65873 l 58.64945,19.32265 q 5.6069,-19.63202 5.374,-29.32915 -0.0391,-10.8187 -5.5029,-21.32466 -5.62345,-10.49134 -12.9315,-14.25824 -13.7884,-6.4827 -24.2322,-6.1122"
       id="path128" />
  </g>
  <g
     style="fill:#000000;fill-opacity:1;stroke-linejoin:miter"
     id="g134">
    <path
       d="m 703.09796,706.59235 -1.26546,0.87615 -42.02226,29.09534 -16.50144,11.42536 -23.0218,70.675 -36.71516,-7.4179 v 10e-4 l 3.69482,0.7893 -3.69626,-0.79057 -1.3574,-0.27429 -4.92156,25.41742 -1.29154,6.67011 36.3647,11.21527 -16.34324,135.16566 10.36438,0.16625 q -0.34704,7.20715 -0.66334,14.00015 h -0.005 q -0.58536,12.6838 -1.06846,23.9248 l 4.46464,5e-4 v 0 l -4.45941,-6e-4 -0.005,-9e-4 q -0.18123,4.2174 -0.34737,8.2317 l 0.89117,4e-4 v 0 l -0.8964,-4e-4 q -0.84896,20.6387 -1.3029,35.9041 h 53.9177 q 4.099,-16.4045 8.2216,-26.7632 3.0481,14.4236 5.3872,26.7632 l 50.5852,0 6.7947,-68.0641 2.38763,-23.9179 39.24841,-11.7591 -17.21324,-62.5328 28.57103,-37.123 q -9.97809,-97.2428 -22.42953,-120.0236 -5.8243,-11.86837 -13.6492,-17.5675 -8.82953,-7.27414 -29.45484,-9.58163 L 703.4411,706.9982 Z"
       id="path132" />
  </g>
  <g
     style="fill:#000000;fill-opacity:1;stroke-linejoin:miter"
     id="g138">
    <path
       d="m 706.20386,943.05536 0.007,0.007 -0.006,10e-4 q -0.98377,1.17371 -1.76687,2.21631 l -0.004,10e-4 q 0.7841,-1.04674 1.76976,-2.22528 z"
       id="path136" />
  </g>
  <g
     style="fill:#000000;fill-opacity:1;stroke-linejoin:miter"
     id="g142">
    <path
       d="m 618.0877,898.9421 1.55415,3.3361 -0.005,10e-4 z"
       id="path140" />
  </g>
  <g
     style="fill:#000000;fill-opacity:1;stroke-linejoin:miter"
     id="g146">
    <path
       d="m 658.98987,740.4674 -0.28657,0.26887 -0.2044,0.73083 -0.006,0.001 0.21014,-0.73187 0.2808,-0.26887 z"
       id="path144" />
  </g>
  <g
     style="fill:#ffffff;fill-opacity:1;stroke-linejoin:miter"
     id="g150">
    <path
       d="m 699.95984,705.3947 -32.07574,25.06905 -6.7456,-1.39222 -1.94935,10.99517 q -17.46495,35.0991 -21.92165,47.981 -9.36815,24.4042 -12.9896,56.4055 -2.65675,20.94585 -5.0999,66.0435 0.2519,0.5831 2.7853,3.51526 5.6075,6.59964 15.85866,6.83614 9.2677,0.62236 37.63124,-4.9177 -13.68263,-34.3081 -17.4035,-54.58537 -4.62593,-23.06223 -2.13967,-44.80553 2.39704,-21.33735 12.65271,-43.8123 9.07892,-20.89706 35.13416,-62.92074 l 0.0565,-0.21086 -3.78931,-4.1962"
       id="path148" />
  </g>
  <g
     style="fill:#ff0000;fill-opacity:1;stroke-linejoin:miter"
     id="g154">
    <path
       d="m 665.73956,733.99884 -7.03626,6.73743 -2.232,7.98016 q -5.14495,6.39487 -9.0856,15.04193 -7.51357,16.5882 -14.9873,42.13204 -6.44375,22.35374 -9.28426,41.55174 -3.10574,19.87109 -5.02644,51.49996 l 5.145,11.0444 12.63376,-12.9784 26.11774,-145.3743 7.9988,-7.6466 -4.21805,-9.92885"
       id="path152" />
  </g>
  <g
     style="fill:#ffc8b1;fill-opacity:1;stroke-linejoin:miter"
     id="g158">
    <path
       d="m 670.0716,636.6957 q -2.2033,-0.01 -5.23163,0.4386 -9.94172,2.0204 -17.48713,2.96494 -3.35204,0.61326 -4.92084,1.72382 -4.8758,3.23734 -5.22106,16.6203 -0.17144,6.35559 1.39086,13.77734 0.20783,10.7648 0.77204,15.4392 0.62706,5.8083 2.16376,9.2317 0.6961,1.59216 1.5647,2.998 l 4.3936,6.44713 q 5.7562,10.64282 6.13325,10.49127 2.11495,2.8313 6.57965,2.1885 l 1.4744,10.7428 6.6612,1.2097 31.62374,-22.40613 -0.5174,-25.21817 q 4.78602,-3.8297 5.68482,-17.34775 0.17724,-10.19615 -7.49526,-6.78131 -2.22886,1.32092 -3.3573,3.82922 -1.494,3.00584 -1.9591,10.98584 l -1.68236,0.39966 q -3.39038,-23.1488 -7.52384,-30.11572 -3.76705,-7.68531 -13.0414,-7.61894"
       id="path156" />
  </g>
  <g
     style="fill:#ffc8b1;fill-opacity:1;stroke-linejoin:miter"
     id="g162">
    <path
       d="M 707.39795,941.6621 691.647,925.93805 681.31903,935.3172 q -4.15663,-0.038 -6.95663,1.79236 -2.76145,1.61059 -9.18247,8.16998 6.5296,11.05136 13.05591,13.45026 5.95436,2.7731 22.87586,1.155 1.2508,-2.2906 1.25366,-3.6033 0.11574,-1.4151 -1.32776,-4.23444 l 0.4615,-1.52276 q 0.719,-2.95094 5.86174,-8.819"
       id="path160" />
  </g>
  <g
     style="fill:#ffffff;fill-opacity:1;stroke-linejoin:miter"
     id="g166">
    <path
       d="m 717.38513,939.28046 -20.93003,-17.50769 -6.8172,4.78983 19.69444,19.59994 8.03846,-6.86988"
       id="path164" />
  </g>
  <g
     style="fill:#ff4d00;fill-opacity:0.113725;stroke-linejoin:miter"
     id="g170">
    <path
       d="m 683.531,704.00665 q -7.12664,8.78955 -11.14984,11.19265 -3.98646,2.72666 -12.25622,3.7626 l 1.38531,10.63496 6.65095,1.46479 18.84185,-13.82055 -3.47115,-13.23115"
       id="path168" />
  </g>
  <g
     id="g196">
    <g
       style="fill:#000000;fill-opacity:1;stroke-linejoin:miter"
       id="g174">
      <path
         d="m 487.9879,647.14246 q -2.74223,0 -5.04225,0.79604 -2.29995,0.70774 -4.06915,1.94614 -1.76926,1.15003 -3.18464,2.65396 -1.3269,1.50376 -2.21148,3.00754 0,-1.50378 -0.26538,-3.80384 -0.2654,-2.21154 -0.5308,-3.53844 -0.97302,-0.17686 -1.85766,-0.26536 -0.79614,-0.0884 -1.76924,-0.0884 -0.97304,0 -1.9461,0.0884 -0.88464,0.0885 -1.8577,0.26536 v 45.38049 q 0.97306,0.17685 2.21156,0.26538 1.23844,0.0884 2.21154,0.0884 0.97303,0 2.2115,-0.0884 1.14996,-0.0885 2.123,-0.26538 l 4e-5,-22.99975 q -4e-5,-4.1577 1.06152,-7.1654 0.97304,-2.9192 2.65384,-4.77687 1.68073,-1.85778 3.89224,-2.74233 2.21156,-0.8846 4.68842,-0.8846 4.24612,0 6.19226,3.0077 1.94618,2.91916 1.94618,9.1999 l -4e-5,26.36135 q 0.97304,0.17685 2.21148,0.26538 1.15,0.0884 2.12308,0.0884 0.97305,0 2.21148,-0.0884 1.2385,-0.0885 2.21156,-0.26538 l 4e-5,-28.74985 q 0,-8.7576 -3.71535,-13.2692 -3.71535,-4.42284 -11.49995,-4.42284 z"
         id="path172" />
    </g>
    <g
       style="fill:#000000;fill-opacity:1;stroke-linejoin:miter"
       id="g178">
      <path
         d="m 262.32452,628.3888 q -0.97308,0 -2.21154,0.0884 -1.14998,0.0885 -2.12305,0.26535 l 7e-5,53.07655 q 0,3.53844 0.973,5.92675 0.9731,2.38855 2.65382,3.80385 1.68076,1.4154 3.89228,2.03465 2.2115,0.61915 4.77685,0.61915 1.50385,0 3.2731,-0.1769 1.76923,-0.0884 3.00769,-0.53075 0,-3.62685 -0.7962,-6.7229 -0.70764,0.17675 -1.76917,0.26535 -0.97307,0.0884 -1.76925,0.0883 -1.15,0 -2.21155,-0.2653 -0.97302,-0.177 -1.76914,-0.9731 -0.7077,-0.70766 -1.15003,-2.12294 -0.44225,-1.41541 -0.44225,-3.89236 l -5e-5,-51.13035 q -0.97306,-0.17685 -2.21153,-0.26535 -1.14999,-0.0884 -2.12305,-0.0884 z"
         id="path176" />
    </g>
    <g
       style="fill:#000000;fill-opacity:1;stroke-linejoin:miter"
       id="g182">
      <path
         d="m 348.92767,647.1426 q -8.31533,0 -12.6499,3.5383 -4.24615,3.53846 -4.24615,9.55384 0,4.51146 2.56543,7.16526 2.56533,2.65383 8.2268,4.7769 l 3.09613,1.15 q 1.68072,0.53077 3.1846,1.15 1.41538,0.53067 2.56534,1.32693 1.06156,0.79602 1.76923,1.94617 0.6192,1.1499 0.6192,2.9192 0,1.59215 -0.88461,2.9192 -0.79614,1.2384 -2.21146,2.123 -1.32698,0.88455 -3.18468,1.3268 -1.85765,0.44227 -3.89225,0.44227 -2.83075,0 -5.74995,-0.61917 -2.83074,-0.53073 -5.21914,-1.50363 -0.70766,1.76903 -1.32694,3.62683 -0.53076,1.76916 -0.70767,3.5383 2.74231,0.9732 5.92688,1.5922 3.18451,0.53075 7.43067,0.53075 4.15762,0 7.60763,-1.0614 3.44997,-1.06155 5.92687,-3.00769 2.38844,-1.85766 3.71544,-4.59986 1.3269,-2.6538 1.3269,-5.9269 0,-2.91916 -0.88461,-5.0422 -0.79615,-2.0347 -2.21153,-3.53846 -1.32696,-1.41541 -3.27306,-2.38844 -1.8577,-0.97313 -3.98078,-1.6808 l -3.89226,-1.3269 q -1.5923,-0.5306 -3.00764,-1.0615 -1.32693,-0.53077 -2.38849,-1.3269 -1.06152,-0.7078 -1.68072,-1.7693 -0.61923,-1.0614 -0.61923,-2.5653 0,-2.9192 2.56536,-4.0692 2.4769,-1.1499 5.74994,-1.1499 3.09616,0 5.83841,0.7076 2.65387,0.6193 4.60001,1.3269 0.7077,-1.50376 1.23846,-3.27304 0.4423,-1.76916 0.61924,-3.53836 -2.47694,-0.8846 -5.83844,-1.5924 -3.2731,-0.6191 -6.72303,-0.6191 z"
         id="path180" />
    </g>
    <g
       style="fill:#000000;fill-opacity:1;stroke-linejoin:miter"
       id="g186">
      <path
         d="m 389.1773,647.14246 q -8.31533,0 -12.6499,3.53844 -4.2461,3.53846 -4.2461,9.55384 0,4.51146 2.5654,7.16526 2.56535,2.65383 8.22682,4.7769 l 3.09613,1.15 q 1.68075,0.53077 3.18463,1.15 1.41537,0.5308 2.56534,1.32693 1.06155,0.79617 1.76922,1.94617 0.6192,1.1499 0.6192,2.9192 0,1.5923 -0.88454,2.9192 -0.79618,1.2384 -2.21156,2.123 -1.32696,0.88455 -3.18464,1.3268 -1.85768,0.4424 -3.89226,0.4424 -2.83074,0 -5.74994,-0.6193 -2.83075,-0.53073 -5.21918,-1.50376 -0.70767,1.76916 -1.32692,3.62686 -0.53074,1.76926 -0.7077,3.5384 2.74233,0.97305 5.9269,1.5923 3.18457,0.5308 7.43066,0.5308 4.15764,0 7.60767,-1.06155 3.44992,-1.06155 5.92682,-3.00755 2.38848,-1.8578 3.71545,-4.6 1.32687,-2.6538 1.32687,-5.9269 0,-2.91916 -0.88457,-5.0422 -0.79615,-2.03456 -2.21156,-3.53846 -1.3269,-1.41528 -3.27304,-2.38844 -1.85775,-0.973 -3.98074,-1.6809 l -3.89233,-1.3268 q -1.59223,-0.53074 -3.00763,-1.0616 -1.32694,-0.5308 -2.3884,-1.3268 -1.06156,-0.7078 -1.68082,-1.7693 -0.6192,-1.0615 -0.6192,-2.5653 0,-2.9192 2.56537,-4.0692 2.47687,-1.1499 5.74995,-1.1499 3.09612,0 5.8384,0.7076 2.6538,0.6193 4.59994,1.3269 0.70774,-1.5039 1.23846,-3.27304 0.44236,-1.76929 0.61927,-3.53846 -2.47697,-0.88464 -5.83847,-1.5923 -3.27304,-0.61924 -6.723,-0.61924 z"
         id="path184" />
    </g>
    <g
       style="fill:#000000;fill-opacity:1;stroke-linejoin:miter"
       id="g190">
      <path
         d="m 303.19345,647.1426 q -5.48455,0 -9.55377,1.94615 -3.98071,1.85765 -6.63452,5.13061 -2.65384,3.18469 -3.98076,7.60764 -1.23845,4.3346 -1.23845,9.37686 0,5.13074 1.3269,9.46534 1.32691,4.2461 4.24607,7.43065 2.83078,3.09605 7.25381,4.86535 4.42307,1.6807 10.6153,1.6807 4.24612,0 7.78454,-0.6193 3.44995,-0.6191 6.36917,-1.85765 -0.0885,-1.85765 -0.53076,-3.80385 -0.44228,-1.85753 -1.14996,-3.18444 -5.66152,2.21144 -11.9422,2.21144 -7.16534,0 -10.88065,-3.44984 -3.62692,-3.44996 -3.80387,-10.88076 l 30.87284,7.6e-4 q 0.0885,-0.97376 0.17691,-2.38906 0.0885,-1.327 0.0885,-2.5654 0,-4.5116 -1.23846,-8.4038 -1.23846,-3.80385 -3.62689,-6.63466 -2.38847,-2.74219 -5.92685,-4.33448 -3.53845,-1.59226 -8.22687,-1.59226 z m -0.26538,6.9884 q 2.74228,0 4.77686,1.0615 1.94617,0.973 3.27307,2.6538 1.23843,1.6807 1.94613,3.9807 0.61924,2.2116 0.61924,4.6885 l -22.38059,5e-4 q 0.6192,-5.839 3.53845,-9.11195 2.83072,-3.27305 8.22684,-3.27305 z"
         id="path188" />
    </g>
    <g
       style="fill:#000000;fill-opacity:1;stroke-linejoin:miter"
       id="g194">
      <path
         d="m 432.61157,647.1426 q -5.30765,-1.4e-4 -9.28842,1.8575 -3.98075,1.8577 -6.63455,5.0424 -2.65384,3.18455 -3.9807,7.51915 -1.23848,4.33459 -1.23845,9.37685 0,5.0422 1.32691,9.3768 1.23844,4.3346 3.89221,7.5192 2.65383,3.18454 6.63453,5.0421 3.98076,1.7693 9.2884,1.7693 5.3076,0 9.28837,-1.8577 3.98071,-1.76916 6.63455,-4.9537 2.6539,-3.1846 3.98081,-7.5192 1.23847,-4.3346 1.23847,-9.3768 0,-5.04226 -1.3269,-9.37685 -1.23848,-4.3346 -3.8923,-7.51915 -2.65385,-3.1847 -6.63457,-5.0424 -3.98077,-1.8575 -9.28836,-1.8575 z m 0,7.16526 q 6.10376,0 9.02298,4.4231 2.91919,4.33444 2.91919,12.20754 0,7.873 -2.91919,12.296 -2.91928,4.423 -9.02305,4.423 -6.10384,0 -9.02297,-4.423 -2.83075,-4.423 -2.83075,-12.29615 0,-7.87295 2.91925,-12.29602 2.83069,-4.33447 8.93454,-4.33447 z"
         id="path192" />
    </g>
  </g>
  <g
     style="fill:#000000;fill-opacity:1;stroke-linejoin:miter"
     id="g200">
    <path
       d="m 385.24075,724.54553 -23.53055,11.23462 q 0.7077,2.03465 1.4154,3.53855 0.70765,1.5038 1.94612,3.0076 l 12.82681,-5.8384 v 38.038 l -13.26903,7e-4 q -0.3539,1.76857 -0.3539,3.71473 0,2.03457 0.3539,3.80384 l 34.5881,6.3e-4 q 0.26537,-1.9468 0.26537,-3.80447 0,-1.68078 -0.26537,-3.71533 l -12.6499,5e-4 -4e-5,-49.98097 z"
       id="path198" />
  </g>
</svg>
