<?xml version="1.0" encoding="UTF-8" standalone="no"?>
<svg
   xmlns:dc="http://purl.org/dc/elements/1.1/"
   xmlns:cc="http://creativecommons.org/ns#"
   xmlns:rdf="http://www.w3.org/1999/02/22-rdf-syntax-ns#"
   xmlns:svg="http://www.w3.org/2000/svg"
   xmlns="http://www.w3.org/2000/svg"
   xmlns:xlink="http://www.w3.org/1999/xlink"
   width="508mm"
   height="285.75mm"
   viewBox="0 0 508 285.75"
   version="1.1"
   id="svg8">
  <defs
     id="defs2">
    <linearGradient
       id="linearGradient1681">
      <stop
         style="stop-color:#40b1e3;stop-opacity:1"
         offset="0"
         id="stop1677" />
      <stop
         style="stop-color:#bfc4c8;stop-opacity:1"
         offset="1"
         id="stop1679" />
    </linearGradient>
    <linearGradient
       id="linearGradient1489">
      <stop
         style="stop-color:#1e9ad2;stop-opacity:1;"
         offset="0"
         id="stop1485" />
      <stop
         style="stop-color:#1f556b;stop-opacity:1"
         offset="1"
         id="stop1487" />
    </linearGradient>
    <linearGradient
       xlink:href="#linearGradient1489"
       id="linearGradient1277"
       x1="-741.66174"
       y1="331.67749"
       x2="-741.66174"
       y2="364.5885"
       gradientUnits="userSpaceOnUse"
       gradientTransform="matrix(0.80013924,0,0,0.80013924,1213.8558,-513.33463)" />
    <clipPath
       clipPathUnits="userSpaceOnUse"
       id="clipPath1950">
      <rect
         style="fill:#000000;fill-opacity:1;stroke:none;stroke-width:0.264583;stroke-linecap:round;stroke-linejoin:round;stroke-miterlimit:4;stroke-dasharray:none;stroke-opacity:1;paint-order:stroke fill markers"
         id="rect1952"
         width="63.943123"
         height="27.690708"
         x="-199.13943"
         y="173.37825"
         ry="0" />
    </clipPath>
    <linearGradient
       xlink:href="#linearGradient1681"
       id="linearGradient1600"
       gradientUnits="userSpaceOnUse"
       gradientTransform="matrix(3.7795276,0,0,3.7795276,4058.2896,0)"
       x1="-372.13235"
       y1="-289.09781"
       x2="-372.13235"
       y2="-83.376114" />
  </defs>
  <metadata
     id="metadata5">
    <rdf:RDF>
      <cc:Work
         rdf:about="">
        <dc:format>image/svg+xml</dc:format>
        <dc:type
           rdf:resource="http://purl.org/dc/dcmitype/StillImage" />
        <dc:title />
      </cc:Work>
    </rdf:RDF>
  </metadata>
  <g
     id="layer3"
     style="display:inline"
     transform="translate(-442.85086,332.67435)">
    <g
       id="bisnis-3">
      <rect
         style="fill:#ffffff;fill-opacity:1;stroke-width:0.529167;stroke-linecap:round;stroke-linejoin:round;paint-order:stroke fill markers"
         id="rect1299"
         width="508"
         height="285.75"
         x="442.85086"
         y="-332.67435"
         ry="0" />
      <path
         id="circle1598"
         style="fill:url(#linearGradient1600);fill-opacity:1;stroke-width:2;stroke-linecap:round;stroke-linejoin:round;paint-order:stroke fill markers"
         d="m 2633.7637,-1173.5938 a 456.24151,456.24151 0 0 0 -456.2383,456.24224 456.24151,456.24151 0 0 0 78.0449,255.1914 h 756.3945 a 456.24151,456.24151 0 0 0 78.043,-255.1914 456.24151,456.24151 0 0 0 -456.2402,-456.24224 z"
         transform="scale(0.26458333)" />
      <path
         style="color:#000000;font-style:normal;font-variant:normal;font-weight:normal;font-stretch:normal;font-size:medium;line-height:normal;font-family:sans-serif;font-variant-ligatures:normal;font-variant-position:normal;font-variant-caps:normal;font-variant-numeric:normal;font-variant-alternates:normal;font-variant-east-asian:normal;font-feature-settings:normal;font-variation-settings:normal;text-indent:0;text-align:start;text-decoration:none;text-decoration-line:none;text-decoration-style:solid;text-decoration-color:#000000;letter-spacing:normal;word-spacing:normal;text-transform:none;writing-mode:lr-tb;direction:ltr;text-orientation:mixed;dominant-baseline:auto;baseline-shift:baseline;text-anchor:start;white-space:normal;shape-padding:0;shape-margin:0;inline-size:0;clip-rule:nonzero;display:inline;overflow:visible;visibility:visible;isolation:auto;mix-blend-mode:normal;color-interpolation:sRGB;color-interpolation-filters:linearRGB;solid-color:#000000;solid-opacity:1;vector-effect:none;fill:#3797be;fill-opacity:1;fill-rule:nonzero;stroke:none;stroke-width:0.529168;stroke-linecap:round;stroke-linejoin:round;stroke-miterlimit:4;stroke-dasharray:none;stroke-dashoffset:0;stroke-opacity:1;color-rendering:auto;image-rendering:auto;shape-rendering:auto;text-rendering:auto;enable-background:accumulate;stop-color:#000000"
         d="m 520.43829,-122.98237 a 0.86291523,0.86291523 0 0 0 -0.86632,0.86629 0.86291523,0.86291523 0 0 0 0.86632,0.85994 h 349.194 a 0.86291523,0.86291523 0 0 0 0.8663,-0.85994 0.86291523,0.86291523 0 0 0 -0.8663,-0.86629 z"
         id="path1249" />
      <path
         id="rect1240"
         style="fill:#42474c;fill-opacity:1;stroke:none;stroke-width:0.793749;stroke-linecap:round;stroke-linejoin:round;stroke-miterlimit:4;stroke-dasharray:none;stroke-opacity:1;paint-order:stroke fill markers"
         d="m 771.58635,-177.05072 h 35.95439 c 1.05801,0 2.24477,0.90623 1.90972,1.90973 l -6.43603,19.2765 c -0.33508,1.00351 -0.85173,1.90973 -1.90972,1.90973 h -35.95439 c -1.058,0 -2.2448,-0.90622 -1.90973,-1.90973 l 6.43605,-19.2765 c 0.33504,-1.0035 0.85171,-1.90973 1.90971,-1.90973 z" />
      <rect
         style="fill:#9b3d01;fill-opacity:1;stroke:none;stroke-width:0.793752;stroke-linecap:round;stroke-linejoin:round;stroke-miterlimit:4;stroke-dasharray:none;stroke-opacity:1;paint-order:stroke fill markers"
         id="rect1238"
         width="108.641"
         height="70.860031"
         x="733.09113"
         y="-154.9803"
         ry="2.348058"
         rx="2.348058" />
      <rect
         style="fill:#bf4b01;fill-opacity:1;stroke:none;stroke-width:0.793749;stroke-linecap:round;stroke-linejoin:round;stroke-miterlimit:4;stroke-dasharray:none;stroke-opacity:1;paint-order:stroke fill markers"
         id="rect1236"
         width="117.03488"
         height="2.3714759"
         x="728.89423"
         y="-154.98027"
         ry="1.185738" />
      <rect
         style="fill:#d2d5d8;fill-opacity:1;stroke:none;stroke-width:0.185208;stroke-linecap:round;stroke-linejoin:round;stroke-miterlimit:4;stroke-dasharray:none;stroke-opacity:1;paint-order:stroke fill markers"
         id="rect1199"
         width="132.18217"
         height="98.084839"
         x="584.75537"
         y="-263.83429"
         ry="6.6533432" />
      <path
         id="path1351"
         style="color:#000000;font-style:normal;font-variant:normal;font-weight:normal;font-stretch:normal;font-size:medium;line-height:normal;font-family:sans-serif;font-variant-ligatures:normal;font-variant-position:normal;font-variant-caps:normal;font-variant-numeric:normal;font-variant-alternates:normal;font-variant-east-asian:normal;font-feature-settings:normal;font-variation-settings:normal;text-indent:0;text-align:start;text-decoration:none;text-decoration-line:none;text-decoration-style:solid;text-decoration-color:#000000;letter-spacing:normal;word-spacing:normal;text-transform:none;writing-mode:lr-tb;direction:ltr;text-orientation:mixed;dominant-baseline:auto;baseline-shift:baseline;text-anchor:start;white-space:normal;shape-padding:0;shape-margin:0;inline-size:0;clip-rule:nonzero;display:inline;overflow:visible;visibility:visible;isolation:auto;mix-blend-mode:normal;color-interpolation:sRGB;color-interpolation-filters:linearRGB;solid-color:#000000;solid-opacity:1;vector-effect:none;fill:#42474c;fill-opacity:1;fill-rule:nonzero;stroke:none;stroke-width:0.264583;stroke-linecap:butt;stroke-linejoin:miter;stroke-miterlimit:4;stroke-dasharray:none;stroke-dashoffset:0;stroke-opacity:1;color-rendering:auto;image-rendering:auto;shape-rendering:auto;text-rendering:auto;enable-background:accumulate;stop-color:#000000"
         d="m 654.53774,-252.44565 v 0.86123 h 46.78787 v -0.86123 z m 0,3.63705 v 0.86123 h 46.78787 v -0.86123 z m 0,3.77862 v 0.85955 h 46.78787 v -0.85955 z m 0,4.10728 v 0.86629 h 46.78787 v -0.86629 z m 0,40.25196 v 0.86628 h 46.78787 v -0.86628 z m 0,3.6438 v 0.85954 h 46.78787 v -0.85954 z m 0,3.77694 v 0.86123 h 46.78787 V -193.25 Z m 0,4.10896 v 0.86628 h 46.78787 v -0.86628 z" />
      <path
         id="path1298"
         style="fill:#85d52d;fill-opacity:1;stroke:none;stroke-width:0.211667;stroke-linecap:round;stroke-linejoin:round;stroke-miterlimit:4;stroke-dasharray:none;stroke-opacity:1;paint-order:stroke fill markers"
         d="m 615.40622,-183.36109 v -9.38927 a 8.2331898,8.2331898 0 0 1 -0.79213,0.0388 8.2331898,8.2331898 0 0 1 -8.23311,-8.23307 8.2331898,8.2331898 0 0 1 3.35055,-6.62863 l -6.6859,-6.63533 a 17.601507,17.601507 0 0 0 -6.03367,13.26396 17.601507,17.601507 0 0 0 17.60213,17.60209 17.601507,17.601507 0 0 0 0.79213,-0.0196 z" />
      <path
         id="rect1258"
         style="fill:url(#linearGradient1277);fill-opacity:1;stroke:none;stroke-width:0.211667;stroke-linecap:round;stroke-linejoin:round;stroke-miterlimit:4;stroke-dasharray:none;stroke-opacity:1;paint-order:stroke fill markers"
         d="m 620.77141,-251.18745 c -0.31734,0 -0.57199,0.39173 -0.57199,0.87672 v 23.32906 c 0,0.48499 0.25471,0.87515 0.57199,0.87515 h 4.21948 c 0.31733,0 0.57196,-0.39016 0.57196,-0.87515 v -23.32906 c 0,-0.48499 -0.25472,-0.87672 -0.57196,-0.87672 z m 7.28877,0 c -0.31734,0 -0.57199,0.39173 -0.57199,0.87672 v 23.32906 c 0,0.48499 0.25471,0.87515 0.57199,0.87515 h 4.21948 c 0.31733,0 0.57195,-0.39016 0.57195,-0.87515 v -23.32906 c 0,-0.48499 -0.25472,-0.87672 -0.57195,-0.87672 z m -14.57757,5.74475 c -0.31734,0 -0.57196,0.30123 -0.57196,0.67512 v 17.98595 c 0,0.37388 0.25472,0.67511 0.57196,0.67511 h 4.21948 c 0.31734,0 0.57199,-0.30122 0.57199,-0.67511 v -17.98595 c 0,-0.37388 -0.25472,-0.67512 -0.57199,-0.67512 z m -7.28877,2.92551 c -0.31733,0 -0.57196,0.25622 -0.57196,0.57355 v 15.26359 c 0,0.31733 0.25472,0.57353 0.57196,0.57353 h 4.21948 c 0.31734,0 0.57199,-0.2562 0.57199,-0.57353 v -15.26359 c 0,-0.31734 -0.25471,-0.57355 -0.57199,-0.57355 z" />
      <path
         id="path1211"
         style="color:#000000;font-style:normal;font-variant:normal;font-weight:normal;font-stretch:normal;font-size:medium;line-height:normal;font-family:sans-serif;font-variant-ligatures:normal;font-variant-position:normal;font-variant-caps:normal;font-variant-numeric:normal;font-variant-alternates:normal;font-variant-east-asian:normal;font-feature-settings:normal;font-variation-settings:normal;text-indent:0;text-align:start;text-decoration:none;text-decoration-line:none;text-decoration-style:solid;text-decoration-color:#000000;letter-spacing:normal;word-spacing:normal;text-transform:none;writing-mode:lr-tb;direction:ltr;text-orientation:mixed;dominant-baseline:auto;baseline-shift:baseline;text-anchor:start;white-space:normal;shape-padding:0;shape-margin:0;inline-size:0;clip-rule:nonzero;display:inline;overflow:visible;visibility:visible;isolation:auto;mix-blend-mode:normal;color-interpolation:sRGB;color-interpolation-filters:linearRGB;solid-color:#000000;solid-opacity:1;vector-effect:none;fill:#42474c;fill-opacity:1;fill-rule:nonzero;stroke:none;stroke-width:2.64583;stroke-linecap:round;stroke-linejoin:round;stroke-miterlimit:4;stroke-dasharray:none;stroke-dashoffset:0;stroke-opacity:1;color-rendering:auto;image-rendering:auto;shape-rendering:auto;text-rendering:auto;enable-background:accumulate;stop-color:#000000"
         d="m 582.4877,-171.33668 a 4.3145704,4.3145704 0 0 0 -4.3129,4.31964 4.3145704,4.3145704 0 0 0 4.3129,4.31119 h 69.44613 v 32.75034 l -50.90358,29.38967 a 1.2943728,1.2943728 0 0 0 -0.47021,1.769657 1.2943728,1.2943728 0 0 0 1.76458,0.471914 l 49.60921,-28.643061 v 31.872246 a 1.2943728,1.2943728 0 0 0 1.29942,1.292682 1.2943728,1.2943728 0 0 0 1.29269,-1.292682 v -31.889106 l 49.64122,28.659921 a 1.2943728,1.2943728 0 0 0 1.76966,-0.471914 1.2943728,1.2943728 0 0 0 -0.47698,-1.769657 l -50.9339,-29.41158 v -32.72843 h 64.67987 a 4.3145704,4.3145704 0 0 0 4.3129,-4.31119 4.3145704,4.3145704 0 0 0 -4.3129,-4.31964 z" />
      <path
         style="color:#000000;font-style:normal;font-variant:normal;font-weight:normal;font-stretch:normal;font-size:medium;line-height:normal;font-family:sans-serif;font-variant-ligatures:normal;font-variant-position:normal;font-variant-caps:normal;font-variant-numeric:normal;font-variant-alternates:normal;font-variant-east-asian:normal;font-feature-settings:normal;font-variation-settings:normal;text-indent:0;text-align:start;text-decoration:none;text-decoration-line:none;text-decoration-style:solid;text-decoration-color:#000000;letter-spacing:normal;word-spacing:normal;text-transform:none;writing-mode:lr-tb;direction:ltr;text-orientation:mixed;dominant-baseline:auto;baseline-shift:baseline;text-anchor:start;white-space:normal;shape-padding:0;shape-margin:0;inline-size:0;clip-rule:nonzero;display:inline;overflow:visible;visibility:visible;isolation:auto;mix-blend-mode:normal;color-interpolation:sRGB;color-interpolation-filters:linearRGB;solid-color:#000000;solid-opacity:1;vector-effect:none;fill:#d2d5d8;fill-opacity:1;fill-rule:nonzero;stroke:none;stroke-width:0.264584;stroke-linecap:round;stroke-linejoin:round;stroke-miterlimit:4;stroke-dasharray:none;stroke-dashoffset:0;stroke-opacity:1;color-rendering:auto;image-rendering:auto;shape-rendering:auto;text-rendering:auto;enable-background:accumulate;stop-color:#000000"
         d="m 675.85975,-172.67432 c -1.14075,0.15165 -1.89759,0.37996 -2.33779,0.68157 -0.10986,0.0754 -0.21687,0.14774 -0.29287,0.33762 -0.0381,0.095 -0.0564,0.2371 -0.013,0.3631 0.0437,0.12588 0.13437,0.20938 0.21036,0.26123 0.15199,0.10341 0.27657,0.12459 0.42043,0.14024 0.14382,0.0163 0.30527,0.013 0.49687,0 0.7607,-0.0499 1.74891,0.0538 2.73271,0.1083 -5.00079,0.58435 -9.47662,2.57945 -11.54236,5.68837 -1.19821,1.80329 -1.6178,3.90259 -0.90452,5.98772 0.71324,2.08515 2.52857,4.12353 5.66924,5.93681 a 0.43145757,0.43145757 0 0 0 0.58605,-0.15916 0.43145757,0.43145757 0 0 0 -0.15917,-0.58604 c -3.02247,-1.74505 -4.657,-3.64847 -5.28067,-5.47177 -0.62369,-1.82332 -0.27331,-3.60095 0.80899,-5.22973 2.1645,-3.25757 7.3382,-5.77753 13.10295,-5.77753 0.44851,0.007 0.74327,-0.001 0.94913,-0.0196 0.10308,-0.01 0.16568,-0.007 0.29288,-0.0574 0.0326,-0.013 0.0737,-0.0294 0.12752,-0.0702 0.0261,-0.0196 0.0881,-0.0874 0.0891,-0.0891 10e-4,-0.001 0.076,-0.16405 0.0763,-0.16569 3.6e-4,-0.001 -0.007,-0.2084 -0.007,-0.21003 1.66685,0.21852 2.8254,-0.0776 4.89851,0.80896 a 0.43150071,0.43150071 0 0 0 0.0196,0.007 c 3.0718,1.14772 5.18304,0.79814 6.93687,0.4459 1.74945,-0.35139 3.09497,-0.68503 5.07684,0.31863 0.30559,0.18623 0.51765,0.34706 0.61787,0.45227 0.0398,0.042 0.0228,0.003 0.0326,0.0196 -0.0812,0.043 -0.22732,0.10008 -0.42679,0.14643 -0.84349,0.197 -2.40519,0.25472 -3.56716,0.40768 -0.0946,0.013 -0.17449,0.0196 -0.3056,0.0955 -0.0655,0.0381 -0.15818,0.10797 -0.21004,0.2358 -0.0521,0.12784 -0.0294,0.27624 0.007,0.36308 0.0741,0.17385 0.15394,0.21527 0.22308,0.26744 0.0692,0.0521 0.13926,0.0972 0.22308,0.14645 0.33459,0.19763 0.85782,0.45699 1.50332,0.85357 1.29096,0.79314 3.03226,2.09908 4.33155,4.22327 2.59853,4.24838 3.53296,11.87199 -4.79021,25.67725 a 0.43145757,0.43145757 0 0 0 0.14645,0.59241 0.43145757,0.43145757 0 0 0 0.5924,-0.14644 c 8.41125,-13.95135 7.57622,-22.0101 4.78384,-26.57539 -1.39619,-2.28266 -3.25655,-3.67091 -4.61184,-4.50355 -0.37532,-0.23059 -0.56533,-0.3262 -0.84082,-0.47776 0.9339,-0.0822 1.95378,-0.14122 2.71359,-0.31864 0.25537,-0.0597 0.47988,-0.12654 0.68157,-0.242 0.20155,-0.11545 0.42036,-0.3206 0.45227,-0.61788 0.0326,-0.29744 -0.12003,-0.54363 -0.31213,-0.74529 -0.19209,-0.20156 -0.45593,-0.38847 -0.81535,-0.60516 a 0.43150071,0.43150071 0 0 0 -0.0261,-0.0196 c -2.21059,-1.12502 -3.91383,-0.74366 -5.65014,-0.39492 -1.73634,0.34874 -3.55729,0.67655 -6.45912,-0.40768 -4.29131,-1.83063 -7.97155,-1.97821 -10.24925,-1.67529 z m 0.1148,0.85994 c 0.22635,-0.0294 0.78737,0.19144 1.04467,0.17187 -0.52168,-0.0294 -0.96151,-0.0545 -1.4651,-0.0574 0.19569,-0.0401 0.19275,-0.0845 0.42043,-0.11479 z"
         id="path1207" />
      <rect
         style="fill:#feaa74;fill-opacity:1;stroke:none;stroke-width:0.529168;stroke-linecap:round;stroke-linejoin:round;stroke-miterlimit:4;stroke-dasharray:none;stroke-opacity:1;paint-order:stroke fill markers"
         id="rect1187"
         width="23.512373"
         height="29.579077"
         x="644.28516"
         y="-237.85107"
         ry="7.9075842"
         transform="rotate(6.3541572)" />
      <path
         style="font-variation-settings:normal;vector-effect:none;fill:#42474c;fill-opacity:1;stroke:none;stroke-width:0.264584;stroke-linecap:butt;stroke-linejoin:miter;stroke-miterlimit:4;stroke-dasharray:none;stroke-dashoffset:0;stroke-opacity:1;stop-color:#000000"
         d="m 679.35924,-170.82826 c 3.5354,0.0457 -2.25089,-0.67534 -5.04455,-0.49242 -2.79366,0.18298 3.18975,-2.88788 11.6416,0.72684 5.97367,2.23195 7.86682,-1.35488 12.06742,0.78291 2.72289,1.6416 -1.24608,1.54408 -3.49264,1.83992 -2.24656,0.29581 18.02575,3.89694 1.29139,31.65353 -5.37742,3.88729 -8.44758,2.54599 -10.36718,1.95753 -1.91964,-0.58839 -0.87899,-8.32386 -0.27429,-11.69583 0.6044,-3.37202 1.25554,-7.5985 -1.43068,-8.02768 -2.68623,-0.42917 -2.98762,1.37981 -4.43735,3.38287 -1.44976,2.00302 -1.13268,-0.92836 -0.87631,-3.99924 -0.22373,-2.70012 -9.31843,-1.75973 -7.925,1.15832 -12.32634,-7.11666 -2.93018,-17.28675 8.84772,-17.28675 z"
         id="path1189" />
      <path
         id="rect1195"
         style="fill:#e69d19;fill-opacity:1;stroke:none;stroke-width:0.529168;stroke-linecap:round;stroke-linejoin:round;stroke-miterlimit:4;stroke-dasharray:none;stroke-opacity:1;paint-order:stroke fill markers"
         d="m 675.94151,-135.18782 c -3.42586,0 -6.53851,1.27123 -8.91777,3.35518 -3.46753,0.45816 -6.40741,3.05046 -7.13904,6.68032 l -4.81945,23.91698 c -0.9219,4.573867 2.01633,8.997415 6.5902,9.919326 0.25113,0.05059 0.50157,0.08451 0.75114,0.112185 v 7.29327 c 0,7.498083 6.03684,13.534923 13.53492,13.534923 h 26.50497 c 7.49805,0 9.84122,-6.03684 9.84122,-13.534923 v -37.742371 c 0,-7.49805 -2.34317,-13.53489 -9.84122,-13.53489 z" />
      <rect
         style="fill:#feaa74;fill-opacity:1;stroke:none;stroke-width:0.211667;stroke-linecap:round;stroke-linejoin:round;paint-order:stroke fill markers"
         id="rect1128"
         width="16.595722"
         height="9.3583174"
         x="601.06049"
         y="-145.43999"
         ry="1.5931871" />
      <path
         id="path1130"
         style="font-variation-settings:normal;vector-effect:none;fill:#f6986a;fill-opacity:1;stroke:none;stroke-width:0.264584;stroke-linecap:butt;stroke-linejoin:miter;stroke-miterlimit:4;stroke-dasharray:none;stroke-dashoffset:0;stroke-opacity:1;stop-color:#000000"
         d="m 602.65384,-145.43967 c -0.88264,0 -1.59245,0.70981 -1.59245,1.59244 v 5.12994 c 6.56751,0.51065 13.11394,-1.85962 16.59563,-3.40126 v -1.72868 c 0,-0.88263 -0.71184,-1.59244 -1.59444,-1.59244 z" />
      <path
         id="path1687"
         style="fill:#feaa74;fill-opacity:1;stroke:none;stroke-width:0.185208;stroke-linecap:round;stroke-linejoin:round;stroke-miterlimit:4;stroke-dasharray:none;stroke-opacity:1;paint-order:stroke fill markers"
         d="m 618.4273,-165.28866 c 7.68881,7.30579 2.67976,17.49069 -1.99276,21.68125 -5.22243,4.68371 -11.725,4.86166 -18.3431,3.08832 -8.38485,-2.24668 -16.90809,-21.49052 -15.62255,-29.6613 1.59549,-10.14048 13.15745,-13.39615 19.63547,-11.66039 8.72352,2.33746 6.57294,7.28792 16.32294,16.55212 z" />
      <path
         id="rect1125"
         style="fill:#e69d19;stroke-width:0.211667;stroke-linecap:round;stroke-linejoin:round;paint-order:stroke fill markers"
         d="m 594.45618,-141.03057 c 18.10485,0 28.24897,2.82271 28.53775,3.90052 0,0.69435 -0.55895,2.68584 -1.2533,2.68584 h -27.28445 c -0.69436,0 -1.25329,-0.55895 -1.25329,-1.2533 v -4.07976 c 0,-0.69433 0.55893,-1.2533 1.25329,-1.2533 z" />
      <path
         id="path1152"
         style="font-variation-settings:normal;vector-effect:none;fill:#ca8a16;fill-opacity:1;stroke:none;stroke-width:0.264584;stroke-linecap:butt;stroke-linejoin:miter;stroke-miterlimit:4;stroke-dasharray:none;stroke-dashoffset:0;stroke-opacity:1;stop-color:#000000"
         d="m 593.20324,-137.03067 v 1.33404 c 0,0.69435 0.55757,1.25195 1.25193,1.25195 h 27.28618 c 0.0293,0 0.0597,-0.0228 0.0901,-0.0293 0.0763,-0.0391 0.1559,-0.0789 0.2244,-0.11807 0.16632,-0.14187 0.317,-0.37643 0.44867,-0.65903 -6.06754,-1.55511 -26.68168,-1.75872 -29.30128,-1.77874 z" />
      <path
         id="path1141"
         style="fill:#feaa74;fill-opacity:1;stroke:none;stroke-width:0.158751;stroke-linecap:round;stroke-linejoin:round;stroke-miterlimit:4;stroke-dasharray:none;stroke-opacity:1;paint-order:stroke fill markers"
         d="m 627.88167,-197.18276 4.57968,-1.05004 c 0.77115,-0.17677 1.49349,0.19895 1.79214,0.93153 l 5.48531,13.45071 c 0.29874,0.73265 -0.1771,1.55374 -0.93153,1.79209 l -7.30961,2.30973 c -0.67191,0.21231 -1.44842,-0.0766 -1.71416,-0.69153 -0.25047,-0.0662 -0.49123,-0.18459 -0.7,-0.36707 l -3.43583,-3.00865 c -0.72687,-0.63649 -0.79865,-1.73438 -0.16209,-2.46125 0.63652,-0.72681 1.73374,-0.80058 2.4606,-0.16405 l 0.81363,0.71343 -1.80963,-9.66291 c -0.14578,-0.77768 0.16046,-1.61531 0.93153,-1.79214 z" />
      <path
         style="font-variation-settings:normal;vector-effect:none;fill:#f6986a;fill-opacity:1;stroke:none;stroke-width:0.264584;stroke-linecap:butt;stroke-linejoin:miter;stroke-miterlimit:4;stroke-dasharray:none;stroke-dashoffset:0;stroke-opacity:1;stop-color:#000000"
         d="m 612.58411,-171.53394 c 0,0 5.1275,2.11481 5.75174,2.48321 0.62419,0.36863 0.0391,3.75868 -1.37221,3.83738 -1.41144,0.0786 -4.46973,-5.97109 -4.37953,-6.32059 z"
         id="path1690" />
      <path
         style="font-variation-settings:normal;vector-effect:none;fill:#42474c;fill-opacity:1;stroke:none;stroke-width:0.264584;stroke-linecap:butt;stroke-linejoin:miter;stroke-miterlimit:4;stroke-dasharray:none;stroke-dashoffset:0;stroke-opacity:1;stop-color:#000000"
         d="m 721.28567,-83.86953 c 0,0 -8.48453,5.097358 -8.6765,6.87424 -0.1921,1.776883 0.0437,1.6325 11.75018,1.062111 8.93786,-0.443942 11.52478,0.734797 10.75298,-7.213394 -3.21925,0.57877 -13.82666,-0.722957 -13.82666,-0.722957 z"
         id="path1683" />
      <path
         style="font-variation-settings:normal;vector-effect:none;fill:#42474c;fill-opacity:1;stroke:none;stroke-width:0.264584;stroke-linecap:butt;stroke-linejoin:miter;stroke-miterlimit:4;stroke-dasharray:none;stroke-dashoffset:0;stroke-opacity:1;stop-color:#000000"
         d="m 734.58449,-83.86953 c 0,0 -8.48452,5.097358 -8.67649,6.87424 -0.1921,1.776883 0.0437,1.6325 11.75018,1.062111 8.93787,-0.443942 11.52478,0.734797 10.75298,-7.213394 -3.21925,0.57877 -13.82667,-0.722957 -13.82667,-0.722957 z"
         id="path1681" />
      <path
         id="path1667"
         style="fill:#e69d19;fill-opacity:1;stroke:none;stroke-width:0.529168;stroke-linecap:round;stroke-linejoin:round;stroke-miterlimit:4;stroke-dasharray:none;stroke-opacity:1;paint-order:stroke fill markers"
         d="m 724.58266,-154.63712 17.16618,0.6521 c 3.15819,0.12001 5.73457,2.76684 5.48426,5.91743 l -5.03464,63.372629 c -0.25015,3.150556 -2.75694,2.023641 -5.91738,2.049797 l -9.84816,0.08154 c -3.16034,0.0261 -5.37174,0.675569 -5.48426,-2.48301 l -2.28338,-64.105666 c -0.11252,-3.15852 5.87149,-5.78314 5.91745,-5.48439 z" />
      <path
         id="rect1621"
         style="fill:#e69d19;fill-opacity:1;stroke:none;stroke-width:0.529167;stroke-linecap:round;stroke-linejoin:round;stroke-miterlimit:4;stroke-dasharray:none;stroke-opacity:1;paint-order:stroke fill markers"
         d="m 718.9648,-224.18349 c -2.24089,-0.0851 -4.51594,0.68912 -6.29827,2.34099 l -16.08695,14.91057 -19.46616,-10.22016 c -1.46816,-0.77079 -3.31031,-0.50406 -4.1275,0.93876 l -2.54492,4.4966 c -0.81724,1.44281 -0.42164,3.17941 0.93876,4.1275 l 22.30769,15.54596 c 0.82922,0.85909 1.78866,1.51415 2.81965,1.96178 0.41227,0.28173 0.87052,0.41973 1.33483,0.45506 2.7805,0.70352 5.84431,0.03 8.11341,-2.07303 l 18.63864,-17.27515 c 3.56464,-3.30375 3.77565,-8.83303 0.47191,-12.39767 -1.65187,-1.78232 -3.86018,-2.72609 -6.10109,-2.81121 z" />
      <path
         id="rect1625"
         style="fill:#feaa74;fill-opacity:1;stroke:none;stroke-width:0.158751;stroke-linecap:round;stroke-linejoin:round;stroke-miterlimit:4;stroke-dasharray:none;stroke-opacity:1;paint-order:stroke fill markers"
         d="m 660.97864,-222.12811 -1.69433,3.57178 c -0.28538,0.60146 -0.10797,1.26314 0.43983,1.64151 l 10.05438,6.9492 c 0.54766,0.37851 1.30864,0.13669 1.6415,-0.43984 l 3.22498,-5.58582 c 0.29646,-0.51347 0.20025,-1.20387 -0.25667,-1.53388 -0.01,-0.2177 -0.0623,-0.43708 -0.17449,-0.64172 l -1.84781,-3.3691 c -0.39095,-0.71277 -1.27982,-0.97113 -1.99259,-0.5802 -0.71275,0.39095 -0.9726,1.27896 -0.58164,1.99174 l 0.43836,0.798 -7.60995,-3.24153 c -0.61246,-0.26094 -1.35619,-0.16163 -1.64154,0.43986 z" />
      <path
         id="path1632"
         style="font-variation-settings:normal;vector-effect:none;fill:#ca8a16;fill-opacity:1;stroke:none;stroke-width:0.264583;stroke-linecap:butt;stroke-linejoin:miter;stroke-miterlimit:4;stroke-dasharray:none;stroke-dashoffset:0;stroke-opacity:1;stop-color:#000000"
         d="m 718.9648,-224.18349 c -2.24089,-0.0851 -4.51594,0.68912 -6.29827,2.34099 l -0.58819,0.54607 c -0.15926,0.24639 -1.15178,1.84608 -1.44437,4.14772 -0.27684,2.17807 -2.08392,18.7866 -2.59886,23.52117 l 16.55887,-15.34707 c 3.56464,-3.30375 3.77565,-8.83303 0.47191,-12.39767 -1.65187,-1.78232 -3.86018,-2.72609 -6.10109,-2.81121 z m -43.7626,6.6286 c -0.90246,0.0649 -1.73688,0.49513 -2.21628,1.34156 l -2.54492,4.4966 c -0.81724,1.44281 -0.42164,3.17941 0.93876,4.1275 l 22.30769,15.54596 c 0.82922,0.85909 1.78866,1.51415 2.81965,1.96178 0.41227,0.28173 0.87052,0.41973 1.33483,0.45506 2.0696,0.52365 4.29525,0.28056 6.23422,-0.74325 0.13788,-0.13732 0.30981,-0.29816 0.43146,-0.41967 -7.46005,0.57886 -31.66167,-17.66469 -31.86551,-17.892 -0.20354,-0.22737 -0.65912,-0.32585 -0.51235,-0.71966 0.14692,-0.39383 2.79668,-4.68709 3.39772,-6.02355 0.59922,-1.33247 -0.31976,-2.12558 -0.32527,-2.13033 z" />
      <path
         id="path1669"
         style="font-variation-settings:normal;vector-effect:none;fill:#ca8a16;fill-opacity:1;stroke:none;stroke-width:0.264583;stroke-linecap:butt;stroke-linejoin:miter;stroke-miterlimit:4;stroke-dasharray:none;stroke-dashoffset:0;stroke-opacity:1;stop-color:#000000"
         d="m 724.50802,-154.65984 c -0.69486,0.0537 -5.9487,2.54673 -5.8432,5.50783 l 0.17696,4.97693 27.8189,3.3084 0.57303,-7.20163 c 0.25031,-3.15059 -2.32605,-5.79735 -5.48423,-5.91737 l -17.16729,-0.65224 v 0.002 c -0.002,-0.0187 -0.0278,-0.0272 -0.0742,-0.0237 z" />
      <path
         id="path1657"
         style="fill:#e69d19;fill-opacity:1;stroke:none;stroke-width:0.529168;stroke-linecap:round;stroke-linejoin:round;stroke-miterlimit:4;stroke-dasharray:none;stroke-opacity:1;paint-order:stroke fill markers"
         d="m 732.62262,-154.63712 17.16618,0.6521 c 3.15819,0.12001 5.73458,2.76684 5.48427,5.91743 l -5.03465,63.372629 c -0.25014,3.150556 -2.75694,2.023641 -5.91737,2.049797 l -9.84815,0.08154 c -3.16035,0.0261 -5.37175,0.675569 -5.48427,-2.48301 l -2.28338,-64.105666 c -0.11252,-3.15852 5.87148,-5.78314 5.91744,-5.48439 z" />
      <path
         id="path1674"
         style="font-variation-settings:normal;vector-effect:none;fill:#ca8a16;fill-opacity:1;stroke:none;stroke-width:0.264583;stroke-linecap:butt;stroke-linejoin:miter;stroke-miterlimit:4;stroke-dasharray:none;stroke-dashoffset:0;stroke-opacity:1;stop-color:#000000"
         d="m 732.5473,-154.65984 c -0.69488,0.0537 -5.94703,2.54673 -5.84153,5.50783 l 0.1719,4.8421 c 1.53596,-0.006 20.73583,-0.0944 28.13576,-0.49381 l 0.25954,-3.26459 c 0.25031,-3.15059 -2.32604,-5.79735 -5.48422,-5.91737 l -17.16561,-0.65224 v 0.002 c -0.002,-0.0187 -0.0295,-0.0272 -0.0758,-0.0237 z" />
      <path
         id="rect1594"
         style="fill:#e69d19;fill-opacity:1;stroke:none;stroke-width:0.529167;stroke-linecap:round;stroke-linejoin:round;stroke-miterlimit:4;stroke-dasharray:none;stroke-opacity:1;paint-order:stroke fill markers"
         d="m 731.88156,-234.88566 1.51179,4.91625 -17.15381,6.21906 c -2.41811,0.87677 -4.79841,2.07589 -4.64153,4.64322 l 1.01628,16.64146 -1.47471,-0.0186 c 0,0 -0.30147,2.89716 -0.0842,3.20728 0.1136,0.16221 0.99269,0.81898 1.84211,1.43595 l 2.84999,46.67663 c 0.15681,2.56738 2.07107,4.64322 4.64323,4.64322 h 32.05426 c 2.57214,0 4.64322,-2.07108 4.64322,-4.64322 v -66.5102 c 0,-2.57212 -2.28695,-3.61008 -4.64322,-4.64154 l -10.02971,-4.47469 c 0,0 0.22896,1.77739 -1.79156,-3.14492 -2.02051,-4.9223 -8.74207,-4.94995 -8.74207,-4.94995 z" />
      <path
         id="path1638"
         style="font-variation-settings:normal;vector-effect:none;fill:#ca8a16;fill-opacity:1;stroke:none;stroke-width:0.264583;stroke-linecap:butt;stroke-linejoin:miter;stroke-miterlimit:4;stroke-dasharray:none;stroke-dashoffset:0;stroke-opacity:1;stop-color:#000000"
         d="m 746.17191,-209.82404 c 0,0 -0.73687,5.93488 3.22751,10.96509 2.19848,2.78954 5.19454,6.8991 7.6887,10.36509 v -12.51396 z m 9.76005,44.70473 -4.55897,2.7337 1.45955,3.67075 2.52531,0.76188 0.39775,-1.34157 c 0,0 0.38907,-0.0539 1.33252,-0.50064 v -4.19997 c -0.58326,-0.65961 -1.15616,-1.12415 -1.15616,-1.12415 z" />
      <path
         style="font-variation-settings:normal;vector-effect:none;fill:none;fill-opacity:1;stroke:#a06e11;stroke-width:0.211667;stroke-linecap:round;stroke-linejoin:round;stroke-miterlimit:4;stroke-dasharray:none;stroke-dashoffset:0;stroke-opacity:1;stop-color:#000000"
         d="m 721.88358,-223.33753 c 0,0 -1.02372,1.60521 -1.23405,3.91222 -0.15068,1.65229 -1.29331,5.10927 -1.29331,5.10927 l 9.81841,-3.72537 8.28168,9.41322 c 0,0 3.82726,-5.49694 4.67998,-9.10043 1.24854,-5.276 -0.0832,-8.87085 -0.0832,-8.87085"
         id="path1614" />
      <path
         style="font-variation-settings:normal;vector-effect:none;fill:#feaa74;fill-opacity:1;stroke:none;stroke-width:0.264584;stroke-linecap:butt;stroke-linejoin:miter;stroke-miterlimit:4;stroke-dasharray:none;stroke-dashoffset:0;stroke-opacity:1;stop-color:#000000"
         d="m 748.10259,-165.47142 c 0,0 -2.23182,3.55813 -2.23182,4.5764 0,1.01832 6.93406,1.89828 7.76275,2.13688 0.8287,0.23874 0.23776,-2.087 0.79846,-2.79989 0.56064,-0.71288 -6.31517,-2.2535 -6.32939,-3.91339 z"
         id="path1603" />
      <path
         id="rect57760-3"
         style="display:inline;fill:#feaa74;fill-opacity:1;stroke:none;stroke-width:0.529168;stroke-linecap:round;stroke-linejoin:round;stroke-miterlimit:4;stroke-dasharray:none;stroke-dashoffset:0;stroke-opacity:1;paint-order:stroke fill markers"
         d="m 720.03238,-233.00225 12.12628,-4.80942 c 0.79011,-0.31332 1.67842,0.0704 1.99178,0.86049 l 2.5934,6.53904 c 2.065,5.20655 0.41163,9.55223 -4.30887,11.42442 -5.26542,2.08829 -8.9181,-1.06742 -10.66968,-5.48379 l -2.59345,-6.53902 c -0.31341,-0.79007 0.0705,-1.67841 0.86054,-1.99172 z" />
      <path
         id="path1592"
         style="display:inline;fill:#f6986a;fill-opacity:1;stroke:none;stroke-width:0.529168;stroke-linecap:round;stroke-linejoin:round;stroke-miterlimit:4;stroke-dasharray:none;stroke-dashoffset:0;stroke-opacity:1;paint-order:stroke fill markers"
         d="m 720.03238,-233.00225 12.12628,-4.80942 c 0.79011,-0.31332 1.69848,0.0627 1.99178,0.86049 l 0.58802,1.59951 c 0.81625,2.31547 -1.53273,11.69897 -5.43964,14.37591 -2.32547,0.99861 -5.78195,0.92062 -7.53353,-3.49573 l -2.59345,-6.53903 c -0.31341,-0.79007 0.0705,-1.67841 0.86054,-1.99172 z" />
      <path
         style="font-variation-settings:normal;display:inline;vector-effect:none;fill:#42474c;fill-opacity:1;stroke:none;stroke-width:0.264584;stroke-linecap:butt;stroke-linejoin:miter;stroke-miterlimit:4;stroke-dasharray:none;stroke-dashoffset:0;stroke-opacity:1;stop-color:#000000"
         d="m 707.27037,-232.21547 c 0,0 -16.54299,-30.76934 0.27885,-29.18069 1.28783,-2.90992 3.75402,-9.35783 18.00085,-6.53765 10.6757,2.11326 13.625,20.60018 5.57988,36.20514 -2.25681,4.02149 -3.68984,1.95716 -6.45659,1.16737 -2.76675,-0.7898 -17.40293,-1.65417 -17.40293,-1.65417 z"
         id="path57718-7" />
      <path
         id="rect57763-5"
         style="display:inline;fill:#feaa74;fill-opacity:1;stroke:none;stroke-width:0.529168;stroke-linecap:round;stroke-linejoin:round;stroke-miterlimit:4;stroke-dasharray:none;stroke-dashoffset:0;stroke-opacity:1;paint-order:stroke fill markers"
         d="m 704.86478,-253.8799 c -0.30886,-0.0436 -0.64608,-0.0533 -1.0138,-0.0248 -2.66073,0.2056 -1.8368,3.19811 0.73342,11.74959 2.12048,7.05503 7.10626,19.3628 12.42357,18.95193 l 6.48016,-0.50052 c 8.04998,-1.09474 7.24278,-11.24362 6.48665,-21.02918 1.0583,-5.66497 -12.28436,-1.03959 -17.33439,-0.64938 -4.73443,0.3658 -3.14489,-7.84463 -7.77561,-8.49765 z m 30.0725,5.98663 c -2.22842,-0.11406 -2.57038,2.39682 -2.57038,2.39682 0,0 -0.30266,5.51478 0.81894,6.53793 4.89343,0.39263 3.6385,-8.78172 1.75144,-8.93475 z" />
      <path
         style="color:#000000;font-style:normal;font-variant:normal;font-weight:normal;font-stretch:normal;font-size:medium;line-height:normal;font-family:sans-serif;font-variant-ligatures:normal;font-variant-position:normal;font-variant-caps:normal;font-variant-numeric:normal;font-variant-alternates:normal;font-variant-east-asian:normal;font-feature-settings:normal;font-variation-settings:normal;text-indent:0;text-align:start;text-decoration:none;text-decoration-line:none;text-decoration-style:solid;text-decoration-color:#000000;letter-spacing:normal;word-spacing:normal;text-transform:none;writing-mode:lr-tb;direction:ltr;text-orientation:mixed;dominant-baseline:auto;baseline-shift:baseline;text-anchor:start;white-space:normal;shape-padding:0;shape-margin:0;inline-size:0;clip-rule:nonzero;display:inline;overflow:visible;visibility:visible;isolation:auto;mix-blend-mode:normal;color-interpolation:sRGB;color-interpolation-filters:linearRGB;solid-color:#000000;solid-opacity:1;vector-effect:none;fill:#fe7f2d;fill-opacity:1;fill-rule:nonzero;stroke:none;stroke-width:0.264584;stroke-linecap:round;stroke-linejoin:round;stroke-miterlimit:4;stroke-dasharray:none;stroke-dashoffset:0;stroke-opacity:1;color-rendering:auto;image-rendering:auto;shape-rendering:auto;text-rendering:auto;enable-background:accumulate;stop-color:#000000"
         d="m 708.47579,-243.95278 a 0.43145757,0.43145757 0 0 0 -0.40533,0.45936 0.43145757,0.43145757 0 0 0 0.45934,0.40535 c 0,0 0.59266,-0.0559 1.25144,0.56764 0.6587,0.62363 1.38235,1.99117 1.2646,5.03899 -0.0707,1.82758 -0.47518,3.63588 -0.11218,4.99841 0.18166,0.68128 0.64451,1.2736 1.39385,1.50232 0.74938,0.22873 1.72418,0.15267 3.08174,-0.21881 a 0.43145757,0.43145757 0 0 0 0.29744,-0.53404 0.43145757,0.43145757 0 0 0 -0.52772,-0.29782 c -1.27955,0.35025 -2.11917,0.36775 -2.60244,0.22036 -0.48328,-0.14748 -0.67257,-0.40278 -0.80398,-0.89621 -0.26287,-0.98685 0.0643,-2.82719 0.13796,-4.74487 0.12328,-3.19532 -0.6436,-4.85389 -1.5326,-5.69551 -0.889,-0.84163 -1.90219,-0.80498 -1.90219,-0.80498 z"
         id="path1040-3" />
      <rect
         style="fill:#e69d19;fill-opacity:1;stroke:none;stroke-width:0.529168;stroke-linecap:round;stroke-linejoin:round;stroke-miterlimit:4;stroke-dasharray:none;stroke-opacity:1;paint-order:stroke fill markers"
         id="rect1598"
         width="17.545769"
         height="42.9589"
         x="724.88971"
         y="265.79651"
         ry="8.7728844"
         transform="rotate(-36.034621)" />
      <path
         style="font-variation-settings:normal;vector-effect:none;fill:#ca8a16;fill-opacity:1;stroke:none;stroke-width:0.264584;stroke-linecap:butt;stroke-linejoin:miter;stroke-miterlimit:4;stroke-dasharray:none;stroke-dashoffset:0;stroke-opacity:1;stop-color:#000000"
         d="m 755.79388,-193.48673 6.86446,3.59711 -2.13887,3.70236 z"
         id="path1646" />
      <path
         id="rect1600"
         style="fill:#e69d19;fill-opacity:1;stroke:none;stroke-width:0.529168;stroke-linecap:round;stroke-linejoin:round;stroke-miterlimit:4;stroke-dasharray:none;stroke-opacity:1;paint-order:stroke fill markers"
         d="m 769.87289,-194.45471 7.00765,5.66768 c 1.28929,1.04275 1.54727,2.97069 0.44499,4.20949 l -20.34134,22.86063 c -1.10229,1.2388 -2.87339,1.42711 -4.20946,0.44501 l -4.16337,-3.06021 c -1.33611,-0.98206 -1.38398,-2.84274 -0.445,-4.20947 l 17.49697,-25.46802 c 0.93897,-1.36675 2.92021,-1.48779 4.2095,-0.44503 z" />
      <path
         style="font-variation-settings:normal;vector-effect:none;fill:none;fill-opacity:1;stroke:#a06e11;stroke-width:0.264584;stroke-linecap:round;stroke-linejoin:round;stroke-miterlimit:4;stroke-dasharray:none;stroke-dashoffset:0;stroke-opacity:1;stop-color:#000000"
         d="m 742.23548,-162.0174 13.99895,4.29747"
         id="path1605" />
      <path
         style="font-variation-settings:normal;vector-effect:none;fill:none;fill-opacity:1;stroke:#a06e11;stroke-width:0.211667;stroke-linecap:round;stroke-linejoin:round;stroke-miterlimit:4;stroke-dasharray:none;stroke-dashoffset:0;stroke-opacity:1;stop-color:#000000"
         d="m 754.21552,-160.31644 -6.20522,-4.6027 c 0,0 -1.338,-1.54963 1.03214,-4.98735 2.37013,-3.43769 14.45164,-20.83523 14.45164,-20.83523"
         id="path1607" />
      <path
         style="font-variation-settings:normal;vector-effect:none;fill:none;fill-opacity:1;stroke:#a06e11;stroke-width:0.211667;stroke-linecap:round;stroke-linejoin:round;stroke-miterlimit:4;stroke-dasharray:none;stroke-dashoffset:0;stroke-opacity:1;stop-color:#000000"
         d="m 760.57746,-187.02072 -13.89456,-18.82353 c 0,0 -1.69127,-6.30121 1.60823,-9.78894"
         id="path1609" />
      <rect
         style="fill:#e69d19;fill-opacity:1;stroke:none;stroke-width:0.211667;stroke-linecap:round;stroke-linejoin:round;stroke-miterlimit:4;stroke-dasharray:none;stroke-opacity:1;paint-order:stroke fill markers"
         id="rect1616"
         width="10.228321"
         height="3.61621"
         x="576.5556"
         y="-524.61719"
         ry="1.808105"
         transform="rotate(25.37174)" />
      <path
         id="rect1618"
         style="fill:none;fill-opacity:1;stroke:#a06e11;stroke-width:0.158751;stroke-linecap:round;stroke-linejoin:round;stroke-miterlimit:4;stroke-dasharray:none;stroke-opacity:1;paint-order:stroke fill markers"
         d="m 744.96322,-225.33448 c 0.42922,-0.90508 1.5034,-1.28819 2.40846,-0.85897 l 5.97436,2.83322 c 0.90507,0.42921 1.28816,1.50338 0.85894,2.40848 -0.42921,0.90505 -1.50338,1.28816 -2.40845,0.85894 l -5.97436,-2.83322" />
      <path
         style="font-variation-settings:normal;vector-effect:none;fill:none;fill-opacity:1;stroke:#ca8a16;stroke-width:0.185208;stroke-linecap:round;stroke-linejoin:round;stroke-miterlimit:4;stroke-dasharray:none;stroke-dashoffset:0;stroke-opacity:1;stop-color:#000000"
         d="m 729.17437,-218.00729 c 0,0 -7.863,46.28032 1.13872,70.68445"
         id="path1653" />
      <path
         style="font-variation-settings:normal;vector-effect:none;fill:none;fill-opacity:1;stroke:#a06e11;stroke-width:0.264584;stroke-linecap:round;stroke-linejoin:round;stroke-miterlimit:4;stroke-dasharray:none;stroke-dashoffset:0;stroke-opacity:1;stop-color:#000000"
         d="m 715.04617,-159.78235 4.87131,-2.47525"
         id="path1655" />
      <path
         style="font-variation-settings:normal;vector-effect:none;fill:none;fill-opacity:1;stroke:#a06e11;stroke-width:0.185208;stroke-linecap:round;stroke-linejoin:round;stroke-miterlimit:4;stroke-dasharray:none;stroke-dashoffset:0;stroke-opacity:1;stop-color:#000000"
         d="m 726.66259,-144.0118 2.42773,59.086127 c 0,0 -0.36521,1.998789 3.43718,2.226337 3.80241,0.227647 15.8423,0.07208 15.8423,0.07208"
         id="path1679" />
      <path
         style="font-variation-settings:normal;vector-effect:none;fill:none;fill-opacity:1;stroke:#000000;stroke-width:0.185208;stroke-linecap:round;stroke-linejoin:round;stroke-miterlimit:4;stroke-dasharray:none;stroke-dashoffset:0;stroke-opacity:1;stop-color:#000000"
         d="m 731.81233,-82.150375 c 0,0 -3.65167,2.623447 -5.32422,4.249848 -1.67255,1.626368 0.6738,2.543281 0.6738,2.543281 l 14.47236,-0.656457"
         id="path1685" />
      <path
         style="font-variation-settings:normal;vector-effect:none;fill:none;fill-opacity:1;stroke:#fe7f2d;stroke-width:0.211667;stroke-linecap:round;stroke-linejoin:round;stroke-miterlimit:4;stroke-dasharray:none;stroke-dashoffset:0;stroke-opacity:1;stop-color:#000000"
         d="m 604.15882,-160.4482 c 0,0 -5.25942,-0.0513 -4.42776,3.52141 0.74428,3.24882 6.76557,7.97523 8.6114,1.74084"
         id="path1694" />
      <path
         style="font-variation-settings:normal;vector-effect:none;fill:#99a0a7;fill-opacity:1;stroke:none;stroke-width:0.264584;stroke-linecap:butt;stroke-linejoin:miter;stroke-miterlimit:4;stroke-dasharray:none;stroke-dashoffset:0;stroke-opacity:1;stop-color:#000000"
         d="m 582.74804,-162.74509 c 0,0 2.72618,14.37423 9.71982,19.14603 4.90158,2.72644 8.37912,-2.4018 9.8281,-3.14906 1.44899,-0.74732 3.48899,-1.42436 3.07137,-2.52466 -0.41759,-1.1003 -9.45228,-4.74431 -5.98449,-10.73203 1.37553,-2.44075 5.32219,-1.93095 7.31547,0.10564 1.23722,1.37415 2.72002,-0.44088 2.07025,-1.35431 -0.64977,-0.91349 -2.56333,-2.94799 -4.07963,-3.73842 -1.51636,-0.79044 -7.17218,-3.39452 -10.41027,-0.97119 -3.23813,2.4233 -8.58273,3.33698 -9.7009,2.78714 -1.11821,-0.54977 -1.94123,-0.29548 -1.82972,0.43074 z"
         id="path1696" />
      <path
         id="rect1698"
         style="fill:#e69d19;fill-opacity:1;stroke:none;stroke-width:0.211667;stroke-linecap:round;stroke-linejoin:round;stroke-miterlimit:4;stroke-dasharray:none;stroke-opacity:1;paint-order:stroke fill markers"
         d="m 591.65175,-135.1871 h 26.50639 c 7.49811,0 13.53446,6.03639 13.53446,13.53444 v 37.742786 c 0,7.498116 -6.03635,13.534467 -13.53446,13.534467 h -26.50639 c -7.49804,0 -9.84085,-6.036351 -9.84085,-13.534467 v -37.742786 c 0,-7.49805 2.34281,-13.53444 9.84085,-13.53444 z" />
      <rect
         style="fill:#e69d19;fill-opacity:1;stroke:none;stroke-width:0.529168;stroke-linecap:round;stroke-linejoin:round;stroke-miterlimit:4;stroke-dasharray:none;stroke-opacity:1;paint-order:stroke fill markers"
         id="rect1137"
         width="20.853359"
         height="51.057175"
         x="378.27954"
         y="496.30823"
         ry="10.42668"
         transform="matrix(0.75015915,0.66125732,0.66125732,-0.75015915,0,0)" />
      <path
         id="path1139"
         style="fill:#e69d19;fill-opacity:1;stroke:none;stroke-width:0.529168;stroke-linecap:round;stroke-linejoin:round;stroke-miterlimit:4;stroke-dasharray:none;stroke-opacity:1;paint-order:stroke fill markers"
         d="m 644.01568,-139.77274 10.05907,-3.68198 c 1.8507,-0.67749 2.88159,-2.74666 2.11783,-4.56349 l -14.09455,-33.52666 c -0.76375,-1.81674 -2.68335,-2.70903 -4.56336,-2.11777 l -5.85835,1.84218 c -1.88,0.59116 -2.64872,2.66549 -2.11776,4.56343 l 9.89372,35.36632 c 0.53089,1.89795 2.71272,2.79527 4.56337,2.1179 z" />
      <path
         style="font-variation-settings:normal;vector-effect:none;fill:#ca8a16;fill-opacity:1;stroke:none;stroke-width:0.264584;stroke-linecap:butt;stroke-linejoin:miter;stroke-miterlimit:4;stroke-dasharray:none;stroke-dashoffset:0;stroke-opacity:1;stop-color:#000000"
         d="m 616.11443,-121.8281 c 0,0 1.10324,11.95735 10.70008,11.98918 4.26093,-0.33064 4.914,-4.34782 4.914,-4.34782 0,0 -11.81195,5.46397 -15.61408,-7.64136 z"
         id="path1150" />
      <path
         id="path1158"
         style="fill:#85d52d;fill-opacity:1;stroke:none;stroke-width:0.211667;stroke-linecap:round;stroke-linejoin:round;stroke-miterlimit:4;stroke-dasharray:none;stroke-opacity:1;paint-order:stroke fill markers"
         d="m 585.88793,-120.54721 c -6.8218,0 -8.95385,4.65723 -8.95385,10.44415 v 29.131033 c 0,5.786984 2.13205,10.444149 8.95385,10.444149 h 24.11527 c 6.82177,0 12.31304,-4.657165 12.31304,-10.444149 v -29.131033 c 0,-5.78692 -5.49127,-10.44415 -12.31304,-10.44415 z m 3.86197,4.78541 h 15.82447 c 0.69432,0 1.25391,0.55959 1.25391,1.25394 v 0.77521 c 0,0.69435 -0.55959,1.25391 -1.25391,1.25391 H 589.7499 c -0.69432,0 -1.25395,-0.55956 -1.25395,-1.25391 v -0.77521 c 0,-0.69435 0.55963,-1.25394 1.25395,-1.25394 z" />
      <path
         id="path1162"
         style="font-variation-settings:normal;vector-effect:none;fill:#69aa22;fill-opacity:1;stroke:none;stroke-width:0.264584;stroke-linecap:butt;stroke-linejoin:miter;stroke-miterlimit:4;stroke-dasharray:none;stroke-dashoffset:0;stroke-opacity:1;stop-color:#000000"
         d="m 580.45354,-119.0529 c -2.58307,1.82343 -3.51946,5.13663 -3.51946,8.94984 v 29.131033 c 0,5.786984 2.13205,10.444149 8.95385,10.444149 h 19.64234 C 581.0793,-84.129758 580.00689,-109.90118 580.45354,-119.0529 Z" />
      <path
         id="path1160"
         style="fill:none;fill-opacity:1;stroke:#52585f;stroke-width:0.529168;stroke-linecap:round;stroke-linejoin:round;stroke-miterlimit:4;stroke-dasharray:none;stroke-opacity:1;paint-order:stroke fill markers"
         d="m 576.93386,-80.972744 v -29.129566 c 0,-5.78696 2.13146,-10.44578 8.95323,-10.44578 h 24.11555 c 6.82177,0 12.3137,4.65882 12.3137,10.44578 v 29.129566 c 0,3.564526 -2.0836,6.700961 -5.27818,8.584394" />
      <path
         id="path1172"
         style="fill:#e69d19;stroke-width:0.211667;stroke-linecap:round;stroke-linejoin:round;paint-order:stroke fill markers"
         d="m 699.64255,-141.03057 c -18.10485,0 -28.24898,2.82271 -28.53775,3.90052 0,0.69435 0.55895,2.68584 1.2533,2.68584 h 27.28445 c 0.69435,0 1.2533,-0.55895 1.2533,-1.2533 v -4.07976 c 0,-0.69433 -0.55895,-1.2533 -1.2533,-1.2533 z" />
      <path
         id="path1174"
         style="font-variation-settings:normal;vector-effect:none;fill:#ca8a16;fill-opacity:1;stroke:none;stroke-width:0.264584;stroke-linecap:butt;stroke-linejoin:miter;stroke-miterlimit:4;stroke-dasharray:none;stroke-dashoffset:0;stroke-opacity:1;stop-color:#000000"
         d="m 700.89546,-137.03071 v 1.33408 c 0,0.69435 -0.55755,1.25193 -1.25193,1.25193 h -27.28618 c -0.0326,0 -0.0597,-0.0228 -0.0901,-0.0326 -0.0763,-0.0391 -0.1559,-0.0793 -0.22439,-0.11838 -0.16633,-0.14187 -0.317,-0.37637 -0.4487,-0.65901 6.06753,-1.55514 26.6817,-1.75871 29.3013,-1.77874 z" />
      <path
         id="path1181"
         style="fill:#85d52d;fill-opacity:1;stroke:none;stroke-width:0.211667;stroke-linecap:round;stroke-linejoin:round;stroke-miterlimit:4;stroke-dasharray:none;stroke-opacity:1;paint-order:stroke fill markers"
         d="m 679.17869,-120.54721 c -6.82177,0 -8.95381,4.6572 -8.95381,10.44412 v 29.131063 c 0,5.786984 2.13204,10.444149 8.95381,10.444149 h 24.1153 c 6.82177,0 12.31304,-4.657165 12.31304,-10.444149 v -29.131063 c 0,-5.78692 -5.49127,-10.44412 -12.31304,-10.44412 z m 3.862,4.78537 h 15.82444 c 0.69435,0 1.25394,0.55963 1.25394,1.25394 v 0.77522 c 0,0.69435 -0.55959,1.25394 -1.25394,1.25394 h -15.82444 c -0.69428,0 -1.25394,-0.55959 -1.25394,-1.25394 v -0.77522 c 0,-0.69431 0.55966,-1.25394 1.25394,-1.25394 z" />
      <path
         id="path1183"
         style="font-variation-settings:normal;vector-effect:none;fill:#69aa22;fill-opacity:1;stroke:none;stroke-width:0.264584;stroke-linecap:butt;stroke-linejoin:miter;stroke-miterlimit:4;stroke-dasharray:none;stroke-dashoffset:0;stroke-opacity:1;stop-color:#000000"
         d="m 673.7443,-119.0529 c -2.58304,1.82339 -3.51942,5.1366 -3.51942,8.94981 v 29.131063 c 0,5.786984 2.13204,10.444149 8.95381,10.444149 h 19.6424 C 674.37013,-84.129758 673.29768,-109.90121 673.7443,-119.0529 Z" />
      <path
         id="path1185"
         style="fill:none;fill-opacity:1;stroke:#52585f;stroke-width:0.529168;stroke-linecap:round;stroke-linejoin:round;stroke-miterlimit:4;stroke-dasharray:none;stroke-opacity:1;paint-order:stroke fill markers"
         d="m 670.22461,-80.972744 v -29.129566 c 0,-5.78696 2.13147,-10.44578 8.95323,-10.44578 h 24.11556 c 6.82177,0 12.31369,4.65882 12.31369,10.44578 v 29.129566 c 0,3.564526 -2.08358,6.700961 -5.27817,8.584394" />
      <path
         style="font-variation-settings:normal;vector-effect:none;fill:none;fill-opacity:1;stroke:#fe7f2d;stroke-width:0.185208;stroke-linecap:round;stroke-linejoin:round;stroke-miterlimit:4;stroke-dasharray:none;stroke-dashoffset:0;stroke-opacity:1;stop-color:#000000"
         d="m 681.30373,-151.63427 c 0,0 0.63584,-0.70201 2.0254,-0.59729 1.38952,0.10475 1.74574,4.60899 -0.6533,5.40465 -2.39902,0.79561 -2.67885,-0.49225 -2.67885,-0.49225"
         id="path1191" />
      <path
         style="font-variation-settings:normal;vector-effect:none;fill:#99a0a7;fill-opacity:1;stroke:none;stroke-width:0.264584;stroke-linecap:butt;stroke-linejoin:miter;stroke-miterlimit:4;stroke-dasharray:none;stroke-dashoffset:0;stroke-opacity:1;stop-color:#000000"
         d="m 618.22483,-165.35656 c 0,0 -1.93519,5.13033 -1.63752,6.38953 0.29776,1.25923 3.22758,-4.32581 3.23428,-5.34865 0.007,-1.02288 -1.1947,-2.06561 -1.59676,-1.04088 z"
         id="path1193" />
      <circle
         style="fill:#d2d5d8;fill-opacity:1;stroke:none;stroke-width:0.793749;stroke-linecap:round;stroke-linejoin:round;stroke-miterlimit:4;stroke-dasharray:none;stroke-opacity:1;paint-order:stroke fill markers"
         id="path1243"
         cx="787.96387"
         cy="-167.57253"
         r="3.1704524" />
      <path
         style="color:#000000;font-style:normal;font-variant:normal;font-weight:normal;font-stretch:normal;font-size:medium;line-height:normal;font-family:sans-serif;font-variant-ligatures:normal;font-variant-position:normal;font-variant-caps:normal;font-variant-numeric:normal;font-variant-alternates:normal;font-variant-east-asian:normal;font-feature-settings:normal;font-variation-settings:normal;text-indent:0;text-align:start;text-decoration:none;text-decoration-line:none;text-decoration-style:solid;text-decoration-color:#000000;letter-spacing:normal;word-spacing:normal;text-transform:none;writing-mode:lr-tb;direction:ltr;text-orientation:mixed;dominant-baseline:auto;baseline-shift:baseline;text-anchor:start;white-space:normal;shape-padding:0;shape-margin:0;inline-size:0;clip-rule:nonzero;display:inline;overflow:visible;visibility:visible;isolation:auto;mix-blend-mode:normal;color-interpolation:sRGB;color-interpolation-filters:linearRGB;solid-color:#000000;solid-opacity:1;vector-effect:none;fill:#737c85;fill-opacity:1;fill-rule:nonzero;stroke:none;stroke-width:0.211667;stroke-linecap:round;stroke-linejoin:round;stroke-miterlimit:4;stroke-dasharray:none;stroke-dashoffset:0;stroke-opacity:1;color-rendering:auto;image-rendering:auto;shape-rendering:auto;text-rendering:auto;enable-background:accumulate;stop-color:#000000"
         d="m 602.29206,-256.17793 a 0.34516609,0.34516609 0 0 0 -0.34399,0.34397 v 29.63299 a 0.34520059,0.34520059 0 0 0 0.34399,0.34397 H 635.626 a 0.34516609,0.34516609 0 0 0 0.34394,-0.34397 0.34516609,0.34516609 0 0 0 -0.34394,-0.34398 h -32.98997 v -29.28901 a 0.34516609,0.34516609 0 0 0 -0.34397,-0.34397 z"
         id="path1256" />
      <path
         id="path1279"
         style="fill:#dc3545;fill-opacity:1;stroke:none;stroke-width:0.211666;stroke-linecap:round;stroke-linejoin:round;stroke-miterlimit:4;stroke-dasharray:none;stroke-opacity:1;paint-order:stroke fill markers"
         d="m 611.92794,-209.35888 a 8.2331899,8.2331899 0 0 1 4.88254,-1.60449 8.2331899,8.2331899 0 0 1 0.70618,0.0304 v -9.38252 a 17.601507,17.601507 0 0 0 -0.70618,-0.0152 17.601507,17.601507 0 0 0 -0.11966,0 17.601507,17.601507 0 0 0 -11.44879,4.33648 z" />
      <path
         id="path1300"
         style="fill:#3797be;fill-opacity:1;stroke:none;stroke-width:0.211666;stroke-linecap:round;stroke-linejoin:round;stroke-miterlimit:4;stroke-dasharray:none;stroke-opacity:1;paint-order:stroke fill markers"
         d="m 617.60261,-185.1467 a 17.601507,17.601507 0 0 0 16.80999,-17.58358 17.601507,17.601507 0 0 0 -2.36289,-8.80611 l -8.11175,4.68536 a 8.2331899,8.2331899 0 0 1 1.10561,4.12075 8.2331899,8.2331899 0 0 1 -7.44096,8.19432 z" />
      <path
         id="path1295"
         style="fill:#ffca2b;fill-opacity:1;stroke:none;stroke-width:0.211666;stroke-linecap:round;stroke-linejoin:round;stroke-miterlimit:4;stroke-dasharray:none;stroke-opacity:1;paint-order:stroke fill markers"
         d="m 617.51666,-220.31554 v 9.38251 a 8.23319,8.23319 0 0 1 6.4213,4.082 l 8.11175,-4.68536 a 17.601507,17.601507 0 0 0 -14.53305,-8.77915 z" />
      <path
         style="color:#000000;font-style:normal;font-variant:normal;font-weight:normal;font-stretch:normal;font-size:medium;line-height:normal;font-family:sans-serif;font-variant-ligatures:normal;font-variant-position:normal;font-variant-caps:normal;font-variant-numeric:normal;font-variant-alternates:normal;font-variant-east-asian:normal;font-feature-settings:normal;font-variation-settings:normal;text-indent:0;text-align:start;text-decoration:none;text-decoration-line:none;text-decoration-style:solid;text-decoration-color:#000000;letter-spacing:normal;word-spacing:normal;text-transform:none;writing-mode:lr-tb;direction:ltr;text-orientation:mixed;dominant-baseline:auto;baseline-shift:baseline;text-anchor:start;white-space:normal;shape-padding:0;shape-margin:0;inline-size:0;clip-rule:nonzero;display:inline;overflow:visible;visibility:visible;isolation:auto;mix-blend-mode:normal;color-interpolation:sRGB;color-interpolation-filters:linearRGB;solid-color:#000000;solid-opacity:1;vector-effect:none;fill:#a06e11;fill-opacity:1;fill-rule:nonzero;stroke:none;stroke-width:0.185208;stroke-linecap:round;stroke-linejoin:round;stroke-miterlimit:4;stroke-dasharray:none;stroke-dashoffset:0;stroke-opacity:1;color-rendering:auto;image-rendering:auto;shape-rendering:auto;text-rendering:auto;enable-background:accumulate;stop-color:#000000"
         d="m 731.97139,-202.86149 0.0636,0.007 c -0.21232,-0.0558 -0.44417,0.0597 -0.56054,0.20383 -0.11643,0.14416 -0.18101,0.31701 -0.2358,0.5096 -0.1093,0.38524 -0.16014,0.87086 -0.1784,1.36953 -0.0196,0.4987 -0.002,0.99983 0.0447,1.39504 0.0228,0.19765 0.0518,0.36694 0.0955,0.50959 0.0228,0.0714 0.046,0.14155 0.0894,0.21036 0.0434,0.0688 0.12229,0.16992 0.28014,0.19113 0,0 0,0.007 0,0.007 0.0359,0.0196 0.0867,0.0577 0.15296,0.10174 0.13275,0.0887 0.31375,0.21461 0.52236,0.36946 0.41716,0.30951 0.95429,0.72247 1.49692,1.12747 0.54264,0.40501 1.09339,0.80153 1.55426,1.09564 0.23058,0.14709 0.43504,0.27233 0.6179,0.35671 0.18296,0.0845 0.32452,0.16991 0.5669,0.10207 0.32774,-0.0916 2.3475,-0.72419 4.3443,-1.38228 0.99841,-0.32908 1.98128,-0.65802 2.72635,-0.93003 0.37255,-0.136 0.68737,-0.25732 0.91727,-0.35669 0.1148,-0.0496 0.20906,-0.0972 0.28667,-0.14025 0.0388,-0.0228 0.0714,-0.0417 0.10831,-0.0702 0.0196,-0.013 0.0349,-0.0261 0.0574,-0.0508 0.01,-0.013 0.0261,-0.0326 0.0381,-0.0509 0.013,-0.0196 0.0375,-0.0741 0.0381,-0.0763 0.0294,-0.0857 0.042,-0.16372 0.0636,-0.29288 0.0228,-0.12915 0.043,-0.29059 0.0636,-0.47773 0.0414,-0.37418 0.0731,-0.84526 0.0636,-1.31223 -0.01,-0.46696 -0.0542,-0.93113 -0.19765,-1.31855 -0.0717,-0.19373 -0.17154,-0.36802 -0.31863,-0.5096 -0.14709,-0.14154 -0.35153,-0.24134 -0.5733,-0.24851 -1.20571,-0.0385 -12.12837,-0.33759 -12.12837,-0.33759 z m -0.0326,0.60516 a 0.30205052,0.30205052 0 0 0 0.013,0 c 0,0 10.93793,0.29939 12.12838,0.33759 0.0776,0.002 0.12264,0.0228 0.1784,0.0763 0.0558,0.0538 0.1148,0.1497 0.16568,0.28667 0.10141,0.27364 0.15069,0.69077 0.15916,1.12112 0.01,0.43034 -0.0196,0.87588 -0.0574,1.22939 -0.0196,0.17677 -0.0444,0.33619 -0.0636,0.45225 -0.013,0.0714 -0.0163,0.0854 -0.0261,0.12101 -0.0476,0.0261 -0.11676,0.0616 -0.21036,0.10174 -0.20971,0.0906 -0.51227,0.20383 -0.87905,0.33762 -0.73352,0.26776 -1.7184,0.60203 -2.71359,0.93002 -1.99035,0.65598 -4.07197,1.30681 -4.31883,1.3759 0.0989,-0.0261 -0.007,-0.013 -0.14644,-0.0763 -0.13958,-0.0646 -0.33018,-0.17318 -0.54782,-0.31212 -0.43526,-0.27786 -0.97783,-0.66846 -1.51604,-1.07013 -0.53819,-0.4017 -1.07273,-0.81287 -1.49694,-1.1275 -0.212,-0.1572 -0.39914,-0.28929 -0.54782,-0.38856 -0.0744,-0.0496 -0.13732,-0.094 -0.19732,-0.12753 -0.0228,-0.013 -0.0564,-0.013 -0.0763,-0.0261 -0.003,-0.01 -9.4e-4,-0.007 -0.007,-0.0261 -0.0261,-0.0815 -0.0555,-0.23157 -0.0763,-0.40768 -0.0417,-0.35237 -0.0555,-0.83036 -0.0381,-1.29945 0.0163,-0.46912 0.0682,-0.92999 0.15296,-1.22943 0.0405,-0.14317 0.093,-0.24231 0.12099,-0.28014 z"
         id="path1358" />
      <path
         style="color:#000000;font-style:normal;font-variant:normal;font-weight:normal;font-stretch:normal;font-size:medium;line-height:normal;font-family:sans-serif;font-variant-ligatures:normal;font-variant-position:normal;font-variant-caps:normal;font-variant-numeric:normal;font-variant-alternates:normal;font-variant-east-asian:normal;font-feature-settings:normal;font-variation-settings:normal;text-indent:0;text-align:start;text-decoration:none;text-decoration-line:none;text-decoration-style:solid;text-decoration-color:#000000;letter-spacing:normal;word-spacing:normal;text-transform:none;writing-mode:lr-tb;direction:ltr;text-orientation:mixed;dominant-baseline:auto;baseline-shift:baseline;text-anchor:start;white-space:normal;shape-padding:0;shape-margin:0;inline-size:0;clip-rule:nonzero;display:inline;overflow:visible;visibility:visible;isolation:auto;mix-blend-mode:normal;color-interpolation:sRGB;color-interpolation-filters:linearRGB;solid-color:#000000;solid-opacity:1;vector-effect:none;fill:#a06e11;fill-opacity:1;fill-rule:nonzero;stroke:none;stroke-width:0.185208;stroke-linecap:round;stroke-linejoin:round;stroke-miterlimit:4;stroke-dasharray:none;stroke-dashoffset:0;stroke-opacity:1;color-rendering:auto;image-rendering:auto;shape-rendering:auto;text-rendering:auto;enable-background:accumulate;stop-color:#000000"
         d="m 711.49406,-202.84769 0.0577,0.007 c -0.1921,-0.0506 -0.40194,0.0541 -0.50725,0.1846 -0.1053,0.13046 -0.16373,0.287 -0.2133,0.46113 -0.0988,0.34861 -0.14481,0.78806 -0.16144,1.23933 -0.0163,0.45129 -0.002,0.90476 0.0405,1.26237 0.0196,0.17873 0.0469,0.33208 0.0864,0.46117 0.0196,0.0646 0.0417,0.12817 0.0808,0.19046 0.0391,0.0623 0.11053,0.15394 0.25342,0.17286 0,0 0,0.007 0,0.007 0.0326,0.0163 0.0786,0.0521 0.13828,0.092 0.12001,0.0802 0.28406,0.19404 0.47267,0.33428 0.37751,0.28016 0.86355,0.65379 1.35459,1.02028 0.49104,0.36651 0.98946,0.72534 1.40649,0.99146 0.20873,0.13307 0.39368,0.24657 0.55914,0.32288 0.16568,0.0763 0.29352,0.15394 0.51301,0.0923 0.29647,-0.0828 2.12429,-0.65532 3.93122,-1.25085 0.90347,-0.29777 1.79289,-0.59544 2.46712,-0.84157 0.33713,-0.12296 0.62201,-0.23287 0.83003,-0.32288 0.10408,-0.045 0.18916,-0.0881 0.25928,-0.12687 0.0353,-0.0196 0.0646,-0.0378 0.0979,-0.0636 0.0163,-0.013 0.0326,-0.0228 0.0518,-0.046 0.01,-0.013 0.0228,-0.0294 0.0346,-0.046 0.013,-0.0163 0.0339,-0.0668 0.0346,-0.0692 0.0261,-0.0776 0.0381,-0.14807 0.0577,-0.26515 0.0196,-0.11676 0.0388,-0.26287 0.0574,-0.4323 0.0375,-0.3386 0.0662,-0.76489 0.0577,-1.18745 -0.01,-0.42257 -0.0489,-0.84262 -0.17872,-1.19318 -0.0649,-0.17515 -0.15525,-0.33302 -0.28831,-0.46113 -0.13307,-0.12817 -0.31798,-0.21852 -0.51879,-0.22504 -1.09104,-0.0349 -10.97515,-0.3056 -10.97515,-0.3056 z m -0.0294,0.54762 a 0.2733302,0.2733302 0 0 0 0.013,0 c 0,0 9.8979,0.27102 10.97517,0.30559 0.0702,0.002 0.11086,0.0196 0.16145,0.0692 0.0506,0.0486 0.10407,0.13534 0.15002,0.25928 0.092,0.24755 0.13599,0.62511 0.14415,1.01453 0.01,0.38942 -0.0163,0.79259 -0.0518,1.1125 -0.0163,0.15981 -0.0401,0.30428 -0.0577,0.40924 -0.013,0.0646 -0.0164,0.0773 -0.0228,0.10953 -0.043,0.0228 -0.10563,0.0558 -0.19047,0.092 -0.18982,0.0822 -0.46358,0.18459 -0.79549,0.3056 -0.66376,0.24231 -1.55501,0.54478 -2.45555,0.8416 -1.80111,0.59361 -3.68481,1.18256 -3.90818,1.24508 0.0894,-0.0228 -0.007,-0.013 -0.13241,-0.0692 -0.12622,-0.0584 -0.29875,-0.15654 -0.49574,-0.28244 -0.39388,-0.25145 -0.88485,-0.60489 -1.37188,-0.96838 -0.48703,-0.36351 -0.97076,-0.73557 -1.35463,-1.0203 -0.19177,-0.14219 -0.36116,-0.26188 -0.49573,-0.35161 -0.0672,-0.045 -0.12426,-0.0851 -0.1784,-0.11545 -0.0196,-0.013 -0.0513,-0.013 -0.0692,-0.0228 -0.003,-0.01 -8.4e-4,-0.007 -0.007,-0.0228 -0.0228,-0.0737 -0.0503,-0.20972 -0.0692,-0.3689 -0.0378,-0.31897 -0.0503,-0.75143 -0.0346,-1.17591 0.0163,-0.4245 0.0616,-0.84157 0.13828,-1.11253 0.0365,-0.12948 0.0845,-0.21917 0.10964,-0.2534 z"
         id="path1361" />
    </g>
  </g>
</svg>
