<?xml version="1.0" encoding="UTF-8" standalone="no"?>
<svg
   version="1.1"
   width="1128px"
   height="808px"
   viewBox="-204 306 1128 808"
   id="svg191"
   sodipodi:docname="webinar-6706203.svg"
   inkscape:version="1.1 (c68e22c387, 2021-05-23)"
   xmlns:inkscape="http://www.inkscape.org/namespaces/inkscape"
   xmlns:sodipodi="http://sodipodi.sourceforge.net/DTD/sodipodi-0.dtd"
   xmlns="http://www.w3.org/2000/svg"
   xmlns:svg="http://www.w3.org/2000/svg">
  <defs
     id="defs195" />
  <sodipodi:namedview
     id="namedview193"
     pagecolor="#ffffff"
     bordercolor="#666666"
     borderopacity="1.0"
     inkscape:pageshadow="2"
     inkscape:pageopacity="0.0"
     inkscape:pagecheckerboard="0"
     showgrid="false"
     inkscape:zoom="0.96410891"
     inkscape:cx="563.73299"
     inkscape:cy="404"
     inkscape:window-width="1920"
     inkscape:window-height="991"
     inkscape:window-x="1699"
     inkscape:window-y="-9"
     inkscape:window-maximized="1"
     inkscape:current-layer="layer1" />
  <g
     id="layer1">
    <g
       style="fill:rgb(0,0,0); fill-opacity:0.31764707; stroke-linejoin: miter"
       id="g8">
      <path
         d="M741.6494,1050.8062L738.34485,1051.8027Q714.8387,1054.8574,600.7465,1057.0076Q485.86478,1059.1593,330.17526,1059.3181Q181.58942,1059.3203,92.49744,1057.3162Q3.4772148,1055.2961,20.29133,1052.1201Q43.797363,1049.0654,157.89021,1046.9148Q272.77222,1044.7633,428.46188,1044.6041Q577.0475,1044.602,666.1391,1046.6067Q694.68506,1047.2549,713.1666,1048.0684L728.7005,1048.9153Q741.5022,1049.8003,741.6494,1050.8062"
         id="path6" />
    </g>
    <g
       style="fill:rgb(113,207,235); fill-opacity:1.0; stroke-linejoin: miter"
       id="g12">
      <path
         d="M500.38385,537.572L501.74533,965.1422L237.9636,965.9846L236.60185,538.4125 Z"
         id="path10" />
    </g>
    <g
       style="fill:rgb(232,241,247); fill-opacity:1.0; stroke-linejoin: miter"
       id="g16">
      <path
         d="M231.50171,707.5348L369.34262,707.09595L507.18323,706.6569Q507.6222,844.4974,508.06125,982.33765Q370.22046,982.77765,232.3796,983.21735Q231.94063,845.376,231.50171,707.5348"
         id="path14" />
    </g>
    <g
       style="fill:rgb(0,0,0); fill-opacity:0.99607843; stroke-linejoin: miter"
       id="g20">
      <path
         d="M231.64809,528.3906L366.26282,527.9617L500.87708,527.5333Q501.17184,620.07574,501.46664,712.6182Q366.85214,713.0479,232.23747,713.477Q231.94283,620.9337,231.64809,528.3906"
         id="path18" />
    </g>
    <g
       style="fill:rgb(255,255,255); fill-opacity:1.0; stroke-linejoin: miter"
       id="g24">
      <path
         d="M460.46777,505.8052L460.468,505.80563L460.46805,505.80582L460.46777,505.8052"
         id="path22" />
    </g>
    <g
       style="fill:rgb(0,0,0); fill-opacity:1.0; stroke-linejoin: miter"
       id="g28">
      <path
         d="M501.74533,965.1422L237.9636,965.9846L236.60185,538.4125L500.38382,537.573L501.74533,965.1422 Z M349.46646,1009.0434C349.42905,997.288,358.8394,987.7223,370.48685,987.68524C382.13818,987.64764,391.60522,997.1539,391.64264,1008.9091C391.68042,1020.6602,382.27383,1030.2427,370.62244,1030.2806C358.97522,1030.3015,349.50394,1020.7945,349.46646,1009.0434 M519.6438,1027.8254L519.68005,1027.8263L518.04785,515.41504L518.0478,515.41113L518.04736,515.30774L518.0394,515.3092C517.94635,503.60867,508.42368,494.17007,496.70456,494.20737C496.62073,494.20758,496.5532,494.21616,496.47723,494.21646L496.47723,494.2082L448.6884,494.36154L309.2688,494.80524L240.00516,495.0263C228.30174,495.07098,218.84749,504.56955,218.8207,516.2612L218.8171,516.26245L220.44928,1028.7749L220.48077,1028.7761C220.4739,1028.9977,220.45065,1029.217,220.45134,1029.4485C220.4879,1040.9126,230.15327,1050.1792,242.04388,1050.1409C242.21889,1050.1404,242.39034,1050.116,242.56552,1050.1116L242.56569,1050.1395L498.76315,1049.3237L498.7631,1049.3225C510.33124,1049.2856,519.7144,1039.9624,519.67786,1028.4944C519.6814,1028.2671,519.6526,1028.0443,519.6438,1027.8254"
         id="path26" />
    </g>
    <g
       style="fill:rgb(60,70,79); fill-opacity:1.0; stroke-linejoin: miter"
       id="g32">
      <path
         d="M370.48685,987.68524C382.13818,987.64764,391.60522,997.1539,391.64264,1008.9091C391.68042,1020.6602,382.27383,1030.2427,370.62244,1030.2806C358.97522,1030.3015,349.50394,1020.7945,349.46646,1009.0434C349.42905,997.288,358.8394,987.7223,370.48685,987.68524 Z"
         id="path30" />
    </g>
    <g
       style="fill:rgb(220,211,212); fill-opacity:1.0; stroke-linejoin: miter"
       id="g36">
      <path
         d="M240.14603,693.18414L370.91333,692.7681L501.6804,692.35144Q501.6893,695.15533,501.6982,697.9591Q370.93118,698.3761,240.16396,698.793Q240.15497,695.9885,240.14603,693.18414"
         id="path34" />
    </g>
    <g
       style="fill:rgb(255,0,28); fill-opacity:1.0; stroke-linejoin: miter"
       id="g40">
      <path
         d="M243.04095,693.18384L292.92612,693.02515L342.81104,692.8665Q342.82004,695.6705,342.82895,698.4742Q292.9439,698.63324,243.05885,698.79285Q243.04988,695.98834,243.04095,693.18384"
         id="path38" />
    </g>
    <g
       style="fill:rgb(255,0,28); fill-opacity:0.99607843; stroke-linejoin: miter"
       id="g44">
      <path
         d="M325.4572,694.9091L325.394,695.8935Q324.93286,698.86957,322.6543,700.6604Q320.35995,702.4496,317.24203,702.1229Q314.26617,701.6615,312.47537,699.38293Q311.90152,698.64655,311.5289,697.7769L311.21524,696.883Q310.95593,695.95984,310.94977,694.95514Q311.01782,691.8727,313.05807,689.81915Q315.0984,687.76624,318.18042,687.67865Q321.26303,687.7465,323.31638,689.78674Q325.3696,691.8272,325.4572,694.9091"
         id="path42" />
    </g>
    <g
       style="fill:rgb(125,139,150); fill-opacity:0.99607843; stroke-linejoin: miter"
       id="g48">
      <path
         d="M461.70963,726.2697L475.48865,726.22577L489.26752,726.18225Q489.28217,730.77844,489.29678,735.37476Q475.51788,735.41907,461.73886,735.4629Q461.7243,730.8661,461.70963,726.2697"
         id="path46" />
    </g>
    <g
       style="fill:rgb(191,205,214); fill-opacity:1.0; stroke-linejoin: miter"
       id="g52">
      <path
         d="M257.16556,731.9709L327.75528,731.74634L398.345,731.5212Q398.36487,737.74854,398.38464,743.9758Q327.79492,744.2014,257.2052,744.4265Q257.18536,738.1988,257.16556,731.9709"
         id="path50" />
    </g>
    <g
       style="fill:rgb(191,205,214); fill-opacity:1.0; stroke-linejoin: miter"
       id="g56">
      <path
         d="M257.59808,751.59283L301.13507,751.4546L344.6721,751.3163Q344.69193,757.54346,344.71176,763.77057Q301.1748,763.90985,257.63773,764.04877Q257.61798,757.821,257.59808,751.59283"
         id="path54" />
    </g>
    <g
       style="fill:rgb(227,237,242); fill-opacity:0.99607843; stroke-linejoin: miter"
       id="g60">
      <path
         d="M217.06944,534.0785L217.06944,534.0785L217.06944,534.0786L217.06944,534.0785L217.06944,534.0785L217.06944,534.0785L217.06944,534.0786Q217.06944,534.0785,217.06944,534.0785"
         id="path58" />
    </g>
    <g
       style="fill:rgb(125,139,150); fill-opacity:1.0; stroke-linejoin: miter"
       id="g64">
      <path
         d="M249.4675,794.2987L252.49214,794.2895L255.51668,794.2801Q255.53824,801.0616,255.55984,807.843Q252.5353,807.8527,249.51062,807.8625Q249.48909,801.0806,249.4675,794.2987"
         id="path62" />
    </g>
    <g
       style="fill:rgb(125,139,150); fill-opacity:1.0; stroke-linejoin: miter"
       id="g68">
      <path
         d="M256.66498,793.77704L261.03754,784.6999L264.21796,785.57996L263.2855,795.7779L270.4881,794.7324L273.56415,798.15796L270.7153,807.82635L256.45618,807.73267L256.66498,793.77704"
         id="path66" />
    </g>
    <g
       style="fill:rgb(227,237,242); fill-opacity:0.99607843; stroke-linejoin: miter"
       id="g72">
      <path
         d="M361.3491,947.1634L361.3491,947.16364L361.3491,947.16364L361.3491,947.1634"
         id="path70" />
    </g>
    <g
       style="fill:rgb(125,139,150); fill-opacity:1.0; stroke-linejoin: miter"
       id="g76">
      <path
         d="M314.51035,798.1247L311.48578,798.1341L308.4612,798.144Q308.43954,791.3622,308.418,784.5803Q311.4427,784.57056,314.4673,784.5608Q314.48877,791.34283,314.51035,798.1247"
         id="path74" />
    </g>
    <g
       style="fill:rgb(125,139,150); fill-opacity:1.0; stroke-linejoin: miter"
       id="g80">
      <path
         d="M307.31293,798.6465L302.94028,807.7237L299.75992,806.8436L300.6924,796.6456L293.4899,797.69073L290.41388,794.2654L293.26257,784.597L307.52167,784.6909L307.31293,798.6465"
         id="path78" />
    </g>
    <g
       style="fill:rgb(125,139,150); fill-opacity:1.0; stroke-linejoin: miter"
       id="g84">
      <path
         d="M331.40643,808.77026L332.522,807.423Q339.7849,798.441,344.68768,794.6644Q349.0546,791.13367,357.5421,788.86804L355.20517,784.3998L365.2343,788.69775L360.8029,798.8917L359.2483,793.8198Q353.9934,794.30554,351.9004,795.11847Q347.28177,796.77466,343.9209,799.20984Q339.42188,802.227,331.40643,808.77026"
         id="path82" />
    </g>
    <g
       style="fill:rgb(227,237,242); fill-opacity:0.99607843; stroke-linejoin: miter"
       id="g88">
      <path
         d="M411.44318,784.2205L411.44327,784.2205L411.44327,784.22064L411.44318,784.2205"
         id="path86" />
    </g>
    <g
       style="fill:rgb(125,139,150); fill-opacity:1.0; stroke-linejoin: miter"
       id="g92">
      <path
         d="M404.47894,794.98773L404.4469,796.5039Q403.93454,801.1046,400.55344,804.00446Q397.1482,806.90344,392.33838,806.60706Q387.73782,806.09467,384.8377,802.7132Q383.90814,801.62024,383.27847,800.3094L382.73773,798.9569Q382.27884,797.55634,382.20352,796.0146Q382.10468,791.27606,385.1027,787.9884Q388.1006,784.7009,392.82803,784.36334Q397.5663,784.2647,400.85394,787.26245Q404.14145,790.2604,404.47894,794.98773"
         id="path90" />
    </g>
    <g
       style="fill:rgb(255,255,255); fill-opacity:0.99607843; stroke-linejoin: miter"
       id="g96">
      <path
         d="M390.43848,789.52905L393.3846,789.5196L396.33057,789.5105Q396.34497,794.04614,396.35944,798.58167Q393.4134,798.591,390.46716,798.6002Q390.45276,794.0645,390.43848,789.52905"
         id="path94" />
    </g>
    <g
       style="fill:rgb(255,255,255); fill-opacity:0.99607843; stroke-linejoin: miter"
       id="g100">
      <path
         d="M400.07578,795.8797L400.07578,795.8797L393.8156,805.10974Q389.96368,800.8639,386.11166,796.61847L400.07578,795.8797"
         id="path98" />
    </g>
    <g
       style="fill:rgb(255,255,255); fill-opacity:0.99607843; stroke-linejoin: miter"
       id="g104">
      <path
         d="M211.09416,777.89703L211.09416,777.8972L211.09416,777.8972L211.09416,777.89703"
         id="path102" />
    </g>
    <g
       style="fill:rgb(125,139,150); fill-opacity:1.0; stroke-linejoin: miter"
       id="g108">
      <path
         d="M423.39133,784.1824L434.85596,784.1458L446.32056,784.10944Q446.35382,794.55505,446.38712,805.0004Q434.92252,805.037,423.45798,805.0738Q423.4246,794.628,423.39133,784.1824"
         id="path106" />
    </g>
    <g
       style="fill:rgb(255,255,255); fill-opacity:0.99607843; stroke-linejoin: miter"
       id="g112">
      <path
         d="M433.90546,787.4306L435.35785,787.42633L436.81018,787.42114Q436.8338,794.8387,436.85733,802.2559Q435.40518,802.26086,433.9528,802.2657Q433.92905,794.84814,433.90546,787.4306"
         id="path110" />
    </g>
    <g
       style="fill:rgb(255,255,255); fill-opacity:0.99607843; stroke-linejoin: miter"
       id="g116">
      <path
         d="M428.3488,796.0945L428.3396,793.1895L443.17453,793.1427L443.18393,796.047L428.3488,796.09485"
         id="path114" />
    </g>
    <g
       style="fill:rgb(174,219,255); fill-opacity:0.99607843; stroke-linejoin: miter"
       id="g120">
      <path
         d="M284.81918,838.4406L284.66663,840.82135Q283.55103,848.01807,278.04108,852.3486Q272.49286,856.6756,264.95306,855.8851Q257.7561,854.7696,253.42595,849.25964Q252.03828,847.47845,251.13696,845.3759L250.3781,843.2136Q249.75146,840.98114,249.73677,838.5524Q249.90108,831.098,254.83498,826.1324Q259.7687,821.16705,267.22217,820.95557Q274.67654,821.1195,279.64203,826.05334Q284.6074,830.98737,284.81918,838.4406"
         id="path118" />
    </g>
    <g
       style="fill:rgb(135,149,162); fill-opacity:1.0; stroke-linejoin: miter"
       id="g124">
      <path
         d="M267.03528,837.7424C270.2328,837.73175,271.37317,834.52686,271.666,831.8959C272.02673,828.65497,270.487,826.2215,266.9986,826.23267C263.51105,826.24365,261.98615,828.6869,262.36755,831.92554C262.67746,834.5542,263.83774,837.7527,267.03528,837.7424 Z"
         id="path122" />
    </g>
    <g
       style="fill:rgb(135,149,162); fill-opacity:1.0; stroke-linejoin: miter"
       id="g128">
      <path
         d="M275.70905,845.3382C275.67084,844.31775,275.54794,843.2929,275.3668,842.28894C275.1471,841.0728,274.86685,839.2895,273.80185,838.49976C273.18585,838.0432,272.38965,837.8955,271.68524,837.62115C271.3425,837.48755,271.0354,837.35504,270.747,837.20355C269.77893,838.27246,268.5136,838.834,267.0382,838.8387C265.56342,838.8433,264.29483,838.28986,263.31992,837.2272C263.03253,837.3807,262.72632,837.515,262.38434,837.6508C261.68164,837.92957,260.88647,838.08246,260.27356,838.54285C259.21356,839.3394,258.94458,841.1246,258.73267,842.34204C258.55774,843.3471,258.44147,844.3727,258.40973,845.39325C258.38513,846.18396,258.77594,846.29333,259.4378,846.52985C260.2669,846.8257,261.12244,847.0449,261.9837,847.2237C263.64694,847.56934,265.36096,847.8337,267.06708,847.8405C268.7729,847.82294,270.4854,847.5476,272.14645,847.19147C273.0064,847.007,273.8606,846.7824,274.68762,846.48126C275.3485,846.2404,275.73825,846.1286,275.7087,845.3382 Z"
         id="path126" />
    </g>
    <g
       style="fill:rgb(191,205,214); fill-opacity:0.99607843; stroke-linejoin: miter"
       id="g132">
      <path
         d="M290.1086,833.8006L309.8826,833.7377L329.65637,833.67474Q329.67032,838.0842,329.68454,842.49365Q309.91058,842.55676,290.13666,842.6201Q290.1226,838.2104,290.1086,833.8006"
         id="path130" />
    </g>
    <g
       style="fill:rgb(191,205,214); fill-opacity:0.99607843; stroke-linejoin: miter"
       id="g136">
      <path
         d="M324.31177,660.07855L324.31177,660.07855L324.31177,660.0788L324.31177,660.07855L324.31177,660.07855L324.31177,660.07855L324.31177,660.0788Q324.31177,660.07855,324.31177,660.07855"
         id="path134" />
    </g>
    <g
       style="fill:rgb(255,0,18); fill-opacity:1.0; stroke-linejoin: miter"
       id="g140">
      <path
         d="M425.1913,831.8757Q426.40976,831.8716,427.01285,832.33606Q427.60098,832.7855,427.604,833.74817Q427.60504,834.0865,427.4486,834.5232Q426.99323,835.6304,425.14313,835.6363L423.1727,835.6429L423.1606,831.88196 Z M467.45914,831.74084Q468.67737,831.737,469.28064,832.20123Q469.86874,832.6509,469.87173,833.6135Q469.8728,833.95184,469.71646,834.3885Q469.2611,835.4958,467.41086,835.50146L465.4405,835.5083L465.42847,831.7473 Z M451.90573,831.79034Q453.1993,831.78625,453.83267,832.2808Q454.4812,832.7899,454.48425,833.75275Q454.4859,834.2639,454.3216,834.6484Q454.15744,835.0249,453.81226,835.3264Q453.43744,835.65137,452.98654,835.79565Q452.50565,835.9478,451.82874,835.9498L450.4298,835.95465L450.41653,831.7951 Z M425.56015,836.71027Q426.80862,836.7064,427.39697,837.20087Q427.98514,837.69556,427.98795,838.5528Q427.98935,839.0042,427.86258,839.3578Q427.40018,840.55524,425.57248,840.5611L425.58752,840.546L423.1883,840.55396L423.17606,836.71796 Z M467.828,836.57574Q469.07648,836.5716,469.66467,837.06616Q470.25293,837.5607,470.2557,838.4181Q470.25708,838.8694,470.13037,839.2232Q469.66794,840.42065,467.8402,840.42645L467.85526,840.41144L465.45605,840.4194L465.44385,836.5834 Z M420.55478,830.69464L420.55692,831.3714Q420.55768,831.6048,420.7834,831.649Q420.91882,831.69366,421.66388,831.8267L421.69174,840.6037L420.8125,840.7945Q420.58698,840.83997,420.58768,841.0733L420.58994,841.7503L425.59134,841.73474Q427.4189,841.7285,428.45395,840.8455Q429.46667,840.0074,429.46213,838.57825Q429.45566,836.5325,427.02484,836.059Q428.06152,835.72473,428.5934,835.0538Q428.81073,834.78204,428.9598,834.36053Q429.079,834.0292,429.07712,833.4351Q429.07538,832.87854,428.8555,832.3452Q428.12823,830.6704,425.1875,830.6798 Z M447.82556,830.60767L447.82776,831.28436Q447.82846,831.51,448.05417,831.5621Q448.18976,831.59174,448.94986,831.73975L448.97772,840.5167L448.08334,840.70746Q447.85782,840.7606,447.8586,840.98627L447.86078,841.6482L451.5685,841.63696L451.56644,840.9746Q451.5661,840.87683,451.49072,840.79407Q451.42285,840.7195,451.31744,840.6972Q451.19705,840.66724,450.45938,840.512L450.4484,837.0371L451.4336,837.03455Q451.75708,837.033,451.8927,837.12274Q452.05093,837.2276,452.17172,837.385L455.04977,841.3171Q455.23135,841.6398,455.6376,841.63855L457.23944,841.634L457.23727,840.9565Q457.2365,840.73096,457.00342,840.6791L457.01828,840.6794Q456.9429,840.6567,456.1529,840.53125L453.75836,837.26733Q453.55435,836.9747,453.2606,836.80994Q453.81662,836.6878,454.40225,836.3626Q454.89786,836.09033,455.25,835.66034Q455.60205,835.2307,455.78104,834.7337Q455.96735,834.20685,455.96548,833.65784Q455.9633,832.95087,455.72836,832.38007Q455.50095,831.83167,454.98816,831.412Q454.4829,830.9999,453.72272,830.7993Q452.92487,830.5915,451.9019,830.5946 Z M458.1444,830.6047L458.14658,831.2515Q458.14728,831.4849,458.32794,831.5294Q458.50858,831.57367,459.2535,831.707L459.2815,840.4988L458.38718,840.6747Q458.17664,840.7202,458.17746,840.96857L458.17963,841.63055L461.88745,841.61914L461.88525,840.9567Q461.88458,840.7236,461.70395,840.67926Q461.45554,840.6198,460.76312,840.4941L460.73523,831.70215L461.62213,831.534Q461.85513,831.48785,461.8543,831.2398L461.85226,830.5931 Z M462.8223,830.56L462.82452,831.2367Q462.82526,831.47003,463.05093,831.51434Q463.1865,831.5588,463.9316,831.692L463.95956,840.4688L463.0801,840.6598Q462.85468,840.7053,462.8554,840.93866L462.8576,841.6156L467.85904,841.60016Q469.6867,841.5939,470.7217,840.71063Q471.73438,839.8724,471.72977,838.4435Q471.72336,836.39764,469.2925,835.92413Q470.32944,835.5901,470.86124,834.9191Q471.0785,834.6474,471.22748,834.22577Q471.34674,833.8945,471.34482,833.3005Q471.3431,832.7439,471.1234,832.2105Q470.396,830.53577,467.4553,830.545 Z M472.5396,830.5587L472.54166,831.2058Q472.5425,831.4538,472.76822,831.49835Q472.90372,831.5431,473.64868,831.676L473.67657,840.4755L472.79736,840.64374Q472.57184,840.6895,472.57263,840.93774L472.57474,841.5846L480.48682,841.5599L480.4786,839.00244L479.74158,839.0052Q479.4406,839.0056,479.4039,839.2541Q479.40414,839.3441,479.31714,840.3599L475.18814,840.3734L475.17615,836.59735L479.23743,836.585L479.23373,835.41876L475.17233,835.4323L475.1607,831.7613L479.2897,831.7488Q479.31326,832.0641,479.3444,832.3573Q479.37534,832.6504,479.39072,832.7859Q479.3988,832.921,479.39883,832.93616Q479.44482,833.1992,479.7231,833.19836L480.46014,833.19653L480.45163,830.5337 Z M404.8354,830.6468Q403.31628,830.6517,402.37152,831.5798Q401.49435,832.4626,401.49832,833.6811Q401.50247,835.01196,402.32462,835.7391Q402.7396,836.10626,403.17627,836.29285Q403.49252,836.4275,405.11887,836.9335Q405.54034,837.0598,405.94724,837.2993Q406.78357,837.76324,406.7864,838.65063Q406.78928,839.5757,406.20447,840.1191Q405.93445,840.39075,405.49878,840.53485Q405.0104,840.69446,404.3561,840.69666Q403.67917,840.6988,402.47458,840.2661L402.42722,839.5895Q402.3801,838.96545,402.3496,838.83777Q402.30362,838.57446,402.04044,838.57544L401.2882,838.5784L401.29703,841.35297L401.74136,841.5021Q402.41888,841.69543,402.97583,841.7912Q403.76578,841.92456,404.48788,841.9222Q406.2251,841.91644,407.22238,840.9129Q408.1745,839.9547,408.16965,838.4357Q408.16412,836.6981,406.49966,835.95874L406.52966,835.9592Q405.92725,835.7125,404.58713,835.27295Q404.11264,835.1167,403.72073,834.8848Q402.89203,834.4285,402.8895,833.6088Q402.8871,832.85675,403.40463,832.3811Q403.94452,831.8833,404.94482,831.8801Q405.71198,831.8777,406.76566,832.1675Q406.79712,832.55865,406.82822,832.89685Q406.85196,833.235,406.86737,833.3855Q406.8754,833.5283,406.87546,833.5358Q406.92136,833.7992,407.19977,833.7983L407.9368,833.7962L407.92865,831.2536Q406.42245,830.64166,404.8354,830.6468 Z M433.8589,830.5544Q432.33963,830.55914,431.395,831.4873Q430.51776,832.37006,430.52173,833.58856Q430.5259,834.9194,431.34805,835.6464Q431.76288,836.01385,432.1997,836.2004Q432.51596,836.33496,434.14212,836.841Q434.56384,836.9676,434.9707,837.2069Q435.80695,837.67065,435.80978,838.5581Q435.81262,839.48315,435.2278,840.0264Q434.9579,840.29803,434.52216,840.4424Q434.03387,840.6019,433.37946,840.6039Q432.70255,840.6063,431.49802,840.1735L431.4506,839.49695Q431.4035,838.87274,431.37302,838.7451Q431.32706,838.48206,431.0637,838.483L430.3116,838.48584L430.32043,841.26025L430.76477,841.4094Q431.44214,841.6027,431.99915,841.69885Q432.78918,841.8319,433.51132,841.82947Q435.2486,841.82385,436.2457,840.8205Q437.19794,839.8623,437.19305,838.34326Q437.1876,836.60583,435.52295,835.8664L435.55304,835.8669Q434.9505,835.61993,433.61035,835.1807Q433.1361,835.0244,432.74408,834.79236Q431.9155,834.3358,431.91287,833.51636Q431.91055,832.7642,432.42798,832.28876Q432.96786,831.7907,433.96814,831.7875Q434.7353,831.7852,435.78912,832.07495Q435.82043,832.466,435.8516,832.8043Q435.87527,833.14246,435.89078,833.29297Q435.8987,833.4358,435.8988,833.4433Q435.94473,833.7066,436.2231,833.7058L436.9602,833.70386L436.9521,831.1612Q435.44586,830.54913,433.8589,830.5544 Z M443.4857,830.5088L443.51584,830.5237Q440.94357,830.5318,439.42188,832.10846Q437.88513,833.7007,437.893,836.18225Q437.90085,838.6568,439.3575,840.23883Q440.79904,841.8064,443.17566,841.79877Q445.7177,841.7906,447.14896,840.12366L446.56018,839.47894Q446.4697,839.3886,446.3118,839.3891Q446.20642,839.3897,446.06393,839.51044Q445.53152,840.00867,444.7128,840.3197Q444.2019,840.50165,443.2544,840.50476Q441.56958,840.51013,440.52054,839.3781Q439.41122,838.18536,439.40482,836.17737Q439.39856,834.1994,440.51517,832.9849Q441.61707,831.8234,443.377,831.8178Q444.42242,831.81445,445.7023,832.21625Q445.70233,832.2389,445.71756,832.3291Q445.7254,832.4119,445.7411,832.57733Q445.75665,832.73505,445.7722,832.9079Q445.8194,833.5544,445.83453,833.5998Q445.88052,833.8779,446.17392,833.87695L446.91092,833.8749L446.90536,832.14465L446.90268,831.2873Q444.80316,830.505,443.4873,830.5086 Z M408.77686,830.76215L408.77902,831.4089Q408.7798,831.65686,409.01306,831.70154Q409.15622,831.7464,409.88614,831.87933L409.9039,837.4748Q409.90997,839.37024,411.10233,840.63745Q412.30225,841.912,414.31027,841.90546Q416.33334,841.8991,417.52515,840.61694Q418.69437,839.33453,418.68832,837.4468L418.6706,831.8513L419.54242,831.68304Q419.7905,831.62946,419.78986,831.3889L419.78763,830.72705L415.9369,830.74L415.93896,831.38635Q415.9397,831.6267,416.188,831.6789Q416.45154,831.7305,417.20398,831.84106L417.22177,837.4364Q417.22623,838.84296,416.46185,839.7029Q415.68253,840.5778,414.32123,840.582Q412.9598,840.5865,412.1749,839.7164Q411.40506,838.8841,411.40042,837.43225L411.38272,831.85956Q412.08185,831.7519,412.39743,831.6908Q412.64554,831.63715,412.64478,831.3967L412.64264,830.7497 Z"
         id="path138" />
    </g>
    <g
       style="fill:rgb(255,255,255); fill-opacity:0.99607843; stroke-linejoin: miter"
       id="g144">
      <path
         d="M406.84146,791.4899L406.84146,791.4904L406.84146,791.4908L406.84146,791.4899"
         id="path142" />
    </g>
    <g
       style="fill:rgb(141,33,14); fill-opacity:1.0; stroke-linejoin: miter"
       id="g148">
      <path
         d="M347.49936,591.7011L346.3897,589.1815Q342.84756,581.57104,341.22455,574.423Q340.23135,569.67914,341.1573,565.3977Q342.1779,561.0217,345.8588,557.1566Q350.84464,552.2489,356.48224,549.8531Q363.21768,546.7816,370.2513,546.5637Q377.1872,546.5449,382.29733,548.60596Q387.04437,550.266,390.36682,553.8584Q392.55035,556.5936,392.59003,560.9321Q396.7408,563.7733,397.94427,566.79706Q399.00873,569.36096,398.20895,573.50104Q397.31433,578.29877,393.64868,587.74835L347.49936,591.7011 Z"
         id="path146" />
    </g>
    <g
       style="fill:rgb(255,255,255); fill-opacity:1.0; stroke-linejoin: miter"
       id="g152">
      <path
         d="M350.38937,614.6143L349.6076,617.9615Q318.77612,624.1905,309.98166,636.179Q298.20834,648.2434,287.20908,691.1588L455.23962,689.8534Q452.01288,673.5269,443.58063,651.38367Q436.7079,635.352,427.17682,629.4046Q422.02994,625.6192,413.95905,622.6774Q404.3258,619.25696,386.5004,616.66205L385.65457,614.8072L350.38937,614.6143 Z"
         id="path150" />
    </g>
    <g
       style="fill:rgb(255,176,146); fill-opacity:1.0; stroke-linejoin: miter"
       id="g156">
      <path
         d="M373.29236,635.96545L371.00644,636.5973Q355.92526,627.79407,353.3866,623.41644Q351.29532,620.7399,351.0058,614.89813Q347.60614,612.09357,346.8292,609.57214Q345.88754,607.2507,345.85,600.3697Q342.845,601.6177,342.00366,596.74445Q340.9881,591.0435,341.43982,588.10315Q341.88715,584.3835,345.7398,586.8783Q345.68604,570.7624,347.28326,566.815Q348.2539,562.3831,352.94434,560.6996Q355.31735,560.063,357.97852,560.125Q359.57666,560.139,361.211,560.21924Q366.06683,560.9499,369.9051,561.0264L380.08673,560.6959Q384.76883,560.9424,386.2338,562.04156Q389.37686,563.8203,390.41125,568.7824Q391.40094,571.63727,391.50644,584.50684Q395.7717,583.65454,396.46686,586.4333Q397.16293,589.6312,393.5534,598.86786Q391.66678,603.195,389.95206,601.074Q390.13806,604.4111,389.51584,606.90625Q388.65387,609.9813,385.7532,614.5998Q386.63354,618.3508,384.82816,622.10284Q382.29504,626.8449,373.29236,635.96545 Z"
         id="path154" />
    </g>
    <g
       style="fill:rgb(0,0,0); fill-opacity:1.0; stroke-linejoin: miter"
       id="g160">
      <path
         d="M374.0816,636.59235L371.24292,636.8297L368.40424,637.0669Q366.74545,639.3852,365.08676,641.70355Q369.1937,648.08936,373.30066,654.47516Q375.30432,647.34937,377.30807,640.22375L374.0816,636.59235 Z"
         id="path158" />
    </g>
    <g
       style="fill:rgb(0,0,0); fill-opacity:1.0; stroke-linejoin: miter"
       id="g164">
      <path
         d="M381.47134,621.90424L381.47134,621.90424L381.47134,621.9045L381.47134,621.90424 Z"
         id="path162" />
    </g>
    <g
       style="fill:rgb(0,0,0); fill-opacity:1.0; stroke-linejoin: miter"
       id="g168">
      <path
         d="M375.2589,646.5065L368.54645,646.89453L365.33005,690.5518L380.88757,690.43115L375.2589,646.5065 Z"
         id="path166" />
    </g>
    <g
       style="fill:rgb(0,0,0); fill-opacity:0.22352941; stroke-linejoin: miter"
       id="g172">
      <path
         d="M359.2806,648.4859L359.2806,648.48627L369.15445,636.82544L373.57202,636.7219L383.97632,646.8227L371.65356,642.1248L359.2806,648.4859 Z"
         id="path170" />
    </g>
    <g
       style="fill:rgb(0,0,0); fill-opacity:1.0; stroke-linejoin: miter"
       id="g176">
      <path
         d="M374.51318,656.5515L374.51318,656.5516L374.51318,656.5516L374.51318,656.5515 Z"
         id="path174" />
    </g>
    <g
       style="fill:rgb(0,0,0); fill-opacity:0.1882353; stroke-linejoin: miter"
       id="g180">
      <path
         d="M317.11835,666.2687L322.1427,690.88745L325.74585,690.85956Q324.0528,688.38586,322.54495,684.03864Q320.88037,679.3817,317.11835,666.2687 Z"
         id="path178" />
    </g>
    <g
       style="fill:rgb(0,0,0); fill-opacity:0.1882353; stroke-linejoin: miter"
       id="g184">
      <path
         d="M422.75726,667.9806L422.6325,669.40295Q421.9302,677.7758,421.24402,682.36914Q420.74054,686.0301,419.44983,690.13116L423.386,690.1009L422.75726,667.9806 Z"
         id="path182" />
    </g>
    <g
       style="fill:rgb(255,0,0); fill-opacity:0.18039216; stroke-linejoin: miter"
       id="g188">
      <path
         d="M385.33466,615.27686L370.53308,634.9412L351.4054,615.01184Q355.79388,619.38434,361.71582,623.50696Q364.70325,625.1677,365.40912,625.35895Q367.0397,625.9302,368.60532,625.9953Q371.61783,626.20374,375.6208,623.7831Q380.0415,620.82874,385.33466,615.27686 Z"
         id="path186" />
    </g>
  </g>
</svg>
